/* XPM */
static char *closeA[] = {
/* columns rows colors chars-per-pixel */
"20 58 125 2 ",
"   c #010102",
".  c #050A0F",
"X  c #050B10",
"o  c #060D13",
"O  c #081018",
"+  c #081019",
"@  c #09121B",
"#  c #122436",
"$  c #13263A",
"%  c #14283C",
"&  c #14283D",
"*  c #3C3B37",
"=  c #3C3B38",
"-  c #3D3D38",
";  c #3C3C39",
":  c #3E3E39",
">  c #3C3D3C",
",  c #3E3F3C",
"<  c #403F3A",
"1  c #3E403F",
"2  c #43413C",
"3  c #48473F",
"4  c #172C42",
"5  c #183048",
"6  c #3D474E",
"7  c #3C474F",
"8  c #3E4F5F",
"9  c #3D4F60",
"0  c #3D5162",
"q  c #3E5164",
"w  c #284E75",
"e  c #2C547E",
"r  c #3F5D7B",
"t  c #3F5F7F",
"y  c #414340",
"u  c #434443",
"i  c #424444",
"p  c #494640",
"a  c #4A4943",
"s  c #4C4A43",
"d  c #4E4C44",
"f  c #4F4D45",
"g  c #525048",
"h  c #54524A",
"j  c #56554D",
"k  c #424C54",
"l  c #424E55",
"z  c #595750",
"x  c #5B5A53",
"c  c #5E5C55",
"v  c #605F58",
"b  c #43576B",
"n  c #43586A",
"m  c #455868",
"M  c #465868",
"N  c #46596B",
"B  c #45596E",
"V  c #405E7D",
"C  c #2C5680",
"Z  c #336497",
"A  c #3D6691",
"S  c #3E6690",
"D  c #3E6A96",
"F  c #386EA5",
"G  c #3D73AC",
"H  c #3E74AD",
"J  c #3E78B6",
"K  c #3F79B7",
"L  c #3F7AB9",
"P  c #406080",
"I  c #406181",
"U  c #406283",
"Y  c #416384",
"T  c #416485",
"R  c #456585",
"E  c #466585",
"W  c #426688",
"Q  c #446789",
"!  c #547FAC",
"~  c #4079B4",
"^  c #427DBA",
"/  c #407DBD",
"(  c #417EBE",
")  c #417FC0",
"_  c #407EC1",
"`  c #5380AD",
"'  c #5480AD",
"]  c #4180C2",
"[  c #4281C3",
"{  c #4282C4",
"}  c #4383C5",
"|  c #4382C6",
" . c #4384CA",
".. c #4484C8",
"X. c #4486CA",
"o. c #4486CB",
"O. c #4588CC",
"+. c #4588CD",
"@. c #4588CE",
"#. c #488ACE",
"$. c #468BD0",
"%. c #468AD1",
"&. c #478CD3",
"*. c #478CD4",
"=. c #488DD3",
"-. c #488ED6",
";. c #488FD7",
":. c #4990D9",
">. c #4B91D9",
",. c #4E93DA",
"<. c #5592D2",
"1. c #5A94D1",
"2. c #5A95D1",
"3. c #5D99D5",
"4. c #5094DA",
"5. c #5296DB",
"6. c #5396DB",
"7. c #5698DC",
"8. c #5798DC",
"9. c #5A99DA",
"0. c #5B9ADB",
"q. c #5A9ADC",
"w. c #5B9BDD",
"e. c #5D9CDD",
"r. c #5F9DDD",
/* pixels */
"v v v v v v v v v v v v v v v v v v v v ",
"c c c c c c c c c c c c c c c c c c c c ",
"x x x x x x x x x x x x x x x x x x x x ",
"z z z z z z z z z z z z x z z z z z z z ",
"j j j j j j j j j j j j j j j j j j j j ",
"h h h h h h h h h h h h h h h h h h h h ",
"g g g a i , * * * * * * = * , i a g g g ",
"d d u l ` 2.e.e.e.e.e.e.e.e.1.! l u d d ",
"s u N 9.9.q.q.q.q.q.q.q.9.9.q.q.9.N 3 3 ",
"a , <.7.7.7.7.7.7.7.7.7.7.7.8.8.7.<.1 p ",
"2 B 6.6.6.6.6.6.6.6.6.6.7.4.7.4.7.6.M 2 ",
"< R ,.6.6.:.6.6.,.6.,.,.4.,.,.7.6.,.R 1 ",
": Q ,.:.,.,.e o #.,.,.#.o C >.>.;.,.W : ",
": W :.:.:.:.&.O X  .o.X O ;.:.;.,.;.W : ",
"* W &.*.*.;.;.&.O X . O =.;.;.;.*.*.W * ",
"* W &.&.*.*.&.&.]     _ &.&.&.&.*.&.Y * ",
": I #.=.;.#.&.} X O O . ] =.&.#.*.&.Y * ",
"= I o.#.o.o.] X O o.} o X ] @.@.@.@.U * ",
"= U o...o.o.w o ( o.o.] o w @.O.O.o.P * ",
"* t o.o.}  . .o.} o.O.o.] o. .} ....t * ",
"* q } } | | } | } } } } ] } } } } } q = ",
"* = ( | | ) } ) } _ } } } } } ] ] ^ > * ",
"= , 9 ( ) ) ) ) } ) ( ) } _ _ _ ( 8 , * ",
"= = , 7 D / / / ~ / _ ~ L ( ~ D 6 , * * ",
"* * * = > = * * * * * * * * * , = * * * ",
"* * * * = = * * * * * * * * * * * * * * ",
"* * * * * * * * * * * * * * * * * * * * ",
"* * * * * * * * * * * * * * * * * * * * ",
"* * * * * * * * * * * * * * * * * * * * ",
"v v v v v v v v v v v v v v v v v v v v ",
"c c c c c c c c c c c c c c c v c c c c ",
"x x x x x x x x x x x x x x x x x x x x ",
"z z z z x x z z z z x z z z z z x z z z ",
"j j j j j j j j j j j j j j j j j j j j ",
"h h g g g h h g g g g g g f g h g h h h ",
"g g g a i : : ; : = ; = < * 6 i d g g g ",
"d d u 7 A H L K K K L L ~ ~ G A 6 u d d ",
"d i q ~ K K L K L L L L ~ ~ L ~ J 8 2 a ",
"p , K ~ ( ^ K K L L L L L L L L K J : p ",
"2 q _ _ _ _ } _ ) ) ) ) } | ) } } ( q < ",
", V ) } } } ] }  .} } ) } _ ) } } ) t , ",
"1 t  .} } } Z & ) | | _ 4 Z  .} o.| P : ",
"= V o. . . .} 5 # } ) # 5 |  . .| | I : ",
"= I o.o.o.#.o. .5 # # 5 o. .o.&.&.o.I = ",
"* Y &.@.@.o.;.&.| o o } &.&.@.&.&.#.t = ",
"* Y =.&.&.;.&. .$ 5 5 $ o.*.&.;.*.&.Y = ",
"* W ;.;.;.;.#.% 5 :.&.4 % =.;.;.;.;.W * ",
"* W 4.;.:.:.F 4 =.:.,.&.4 F :.;.,.:.W * ",
"* E ,.,.,.;.,.,.6.,.,.,.,.,.6.,.,.,.W * ",
"* m 6.6.6.6.6.6.6.6.6.6.,.6.6.6.6.6.m * ",
"* 6 <.7.6.8.8.8.7.7.7.7.7.7.7.7.7.<.1 ; ",
"* : m 2.q.q.q.q.q.q.9.9.q.q.w.w.9.N : * ",
"* * , l ` 3.e.e.e.e.r.e.e.e.3.` k : * * ",
"* * = ; > ; * : * * : * * * : > = * * * ",
"* * * * * * * * * * * * * * * * = = * * ",
"* * * * * * * * * * * * * * * * * = * * ",
"* * * * * * * * * * * * * * * * * * * * ",
"* * * * * * * * * * * * * * * * * * * * "
};
