/* XPM */
static char *closeI[] = {
/* columns rows colors chars-per-pixel */
"20 58 111 2 ",
"   c #090909",
".  c #0B0B0A",
"X  c #1B1B19",
"o  c #1B1B1A",
"O  c #1C1B1A",
"+  c #1C1C1A",
"@  c #1F1E1C",
"#  c #1F1E1D",
"$  c #20201D",
"%  c #21201F",
"&  c #21211F",
"*  c #222120",
"=  c #252422",
"-  c #272725",
";  c #282725",
":  c #2A2927",
">  c #2B2B28",
",  c #3C3B37",
"<  c #3C3C38",
"1  c #3D3C39",
"2  c #3E3D38",
"3  c #3E3D3A",
"4  c #403F3A",
"5  c #40403B",
"6  c #42413C",
"7  c #43413C",
"8  c #43433D",
"9  c #44423D",
"0  c #44433E",
"q  c #48473F",
"w  c #464541",
"e  c #474641",
"r  c #494640",
"t  c #4A4842",
"y  c #4C4B44",
"u  c #4C4A46",
"i  c #4C4B47",
"p  c #4E4C44",
"a  c #4F4D45",
"s  c #4C4C47",
"d  c #4F4E48",
"f  c #4F4F49",
"g  c #525048",
"h  c #50504B",
"j  c #54524A",
"k  c #53514C",
"l  c #53534E",
"z  c #56554D",
"x  c #565450",
"c  c #565651",
"v  c #595750",
"b  c #595853",
"n  c #5B5A53",
"m  c #5A5954",
"M  c #5E5C55",
"N  c #5C5C56",
"B  c #5F5F57",
"V  c #5E5D58",
"C  c #605E57",
"Z  c #605F58",
"A  c #606058",
"S  c #60605A",
"D  c #60605B",
"F  c #62615B",
"G  c #62625B",
"H  c #63625C",
"J  c #65645C",
"K  c #65645D",
"L  c #64645E",
"P  c #64645F",
"I  c #68675F",
"U  c #69685F",
"Y  c #666660",
"T  c #676761",
"R  c #696860",
"E  c #6A6A61",
"W  c #696862",
"Q  c #6C6B62",
"!  c #6C6C63",
"~  c #6D6C63",
"^  c #6B6B64",
"/  c #6B6B65",
"(  c #6E6E64",
")  c #6C6C66",
"_  c #6E6D68",
"`  c #6F6E68",
"'  c #6F6F68",
"]  c #706F69",
"[  c #72716B",
"{  c #74736C",
"}  c #75746D",
"|  c #777770",
" . c #787770",
".. c #7A7973",
"X. c #7B7B74",
"o. c #7B7A75",
"O. c #7C7B74",
"+. c #7E7E77",
"@. c #7F7E78",
"#. c #807F78",
"$. c #81817A",
"%. c #83827C",
"&. c #83837C",
"*. c #85857E",
"=. c #86857F",
"-. c #868680",
";. c #878680",
":. c #888881",
">. c #8A8983",
",. c #8D8C86",
"<. c #8D8D87",
/* pixels */
"Z Z Z Z Z Z Z Z B B Z Z Z Z M B A A A B ",
"M M M M M M M M M M M M M M M M M M M M ",
"n n n n n n n n n n n n m n n n n n m n ",
"v v v v v v v v v v v n M v v v v v v n ",
"z z z z z z z z z z z z z z z z z z z z ",
"j j j j j j j j j g j j j j j j j j j j ",
"j g j t 6 2 , , , , , , 2 2 2 6 t g g g ",
"p y 6 e M E ( ( ( ( ( ( ( ( E B 0 0 p p ",
"y 0 y Q ( Q ~ ~ ~ ~ ~ ~ E ~ ~ ~ E r 0 p ",
"q 2 U Q E Q Q E Q E / E ~ ~ E E ( E 2 r ",
"6 y E E I E E E R E E E E U U U E E t 5 ",
"2 j I E E U U U R R R R E U U I R R j 5 ",
"2 k I I I I g @ J R P P @ j P I P P g 2 ",
"2 k I I J I P = X P P o = J I I R I k 2 ",
"1 k P P I P I J = O X = J P I I P P k 1 ",
", h P P P I J P M     Z P P P P P Y f , ",
", f L L L L L H + $ $ + G G P P P J g 2 ",
", j L J L Y M X $ H L $ + H H H P H f , ",
", f L L G L s @ L L L G $ p A P I L f , ",
", f G G H L H A J J G G L G P P H H f , ",
", t I H H L P H H H H H H H H A H H e < ",
", , P A A P H H H H H H H P B P H M 2 , ",
", 2 q N V P A D B P A A P B H H A e 2 , ",
", < 2 6 c B P P V A A P A L M z 6 2 < < ",
", , , , 2 , , , , , , , , , , , , , , , ",
", , , , , , , , , , , , , , , , , , , , ",
", , , , , , , , , , , , , , , , , , , , ",
", , , , , , , , , , , , , , , , , , , , ",
", , , , , , , , , , , , < < , , , , , , ",
"C A n P B P B m A A M H A A B A B P B m ",
"M M M M M M M M M M M M M M M M M M M M ",
"n n n n m M m m n n n n n n n n n n M m ",
"n v v v v v v v v v n v v v v v m v v v ",
"z z z z z z z z z z z z z z z z z z z z ",
"j j j j j j j j j k g k j g g j j j j j ",
"g g g y 0 2 e 6 e 6 r 6 6 e 6 e u g g j ",
"y g r i o.,.,.<.<.<.<.<.<.<.>.o.y r y p ",
"t q j >.>.>.>.>.>.>.>.>.>.>.>.>.;.j e y ",
"q 5 %.=.;.;.;.;.=.=.;.=.=.;.;.=.=.$.6 r ",
"5 v %.%.&.&.&.&.*.$.$.&.$.&.$.$.$.$.c 0 ",
"4 P #.#.+.+.+.+.+.+.+.+.+.+.+.+.X.+.P 5 ",
"4 J X.X.o.X.B - X.X.X.X.= B X.X.X.X.H 2 ",
"6 P +.} o. .| > @ { } $ :  .| | | X.H 2 ",
", P  .}  .} | | : @ @ : {  .{ | | } B 2 ",
"2 H [ } { { | [ _ . . _ { { { { [ [ P 2 ",
", M [ [ [ [ [ _ % ; ; @ ( [ [ [ [ [ N 2 ",
"2 B [ [ ] ] ~ @ - _ ( * @ ~ _ ] _ ] m 2 ",
", m ( ( _ _ l * / ] ) / * k ( ( / [ m 2 ",
"2 b / / / / / / _ / E / E / / / / R v 1 ",
"< i Y / / / E Y Y / E / R R R Y W R u 1 ",
", 2 Y I Y Y Y T Y Y Y Y Y Y Y Y Y Z 3 1 ",
", < e P I P P I Z Y P Y P Y P Y P w 3 1 ",
", , 2 6 n H H Z H I B P P Z P m 6 1 , , ",
", , 1 , , 2 2 2 2 , , , , , 1 2 , , , , ",
", , , , , , , , , , , , , , , , , , , , ",
", , , , , , , , , , , , , , , , , , , , ",
", , , , , , , , , , , , , , , , , , , , ",
", , , , , , , , , , , , , , , , , , , , "
};
