/* XPM */
static char *closeO[] = {
/* columns rows colors chars-per-pixel */
"20 58 168 2 ",
"   c #070D14",
".  c #0B1015",
"X  c #122437",
"o  c #14283D",
"O  c #1F2D3A",
"+  c #1F2D3C",
"@  c #1F2E3D",
"#  c #212F3D",
"$  c #3C3B37",
"%  c #3C3B38",
"&  c #3C3C38",
"*  c #3D3D38",
"=  c #3C3C39",
"-  c #3E3E39",
";  c #3C3E3D",
":  c #3C3E3E",
">  c #403F3A",
",  c #3E403E",
"<  c #40403D",
"1  c #43413C",
"2  c #48473F",
"3  c #172C42",
"4  c #172D44",
"5  c #182F48",
"6  c #183048",
"7  c #19314A",
"8  c #223242",
"9  c #243445",
"0  c #263646",
"q  c #27394B",
"w  c #28394C",
"e  c #2A3C4F",
"r  c #2B3E51",
"t  c #3D464E",
"y  c #3E4E5E",
"u  c #3D4F60",
"i  c #3D5162",
"p  c #3F5C7A",
"a  c #3F5D7B",
"s  c #3F5F7F",
"d  c #414241",
"f  c #454543",
"g  c #454642",
"h  c #454644",
"j  c #494640",
"k  c #4B4943",
"l  c #4C4A43",
"z  c #4E4C44",
"x  c #525048",
"c  c #54524A",
"v  c #56554D",
"b  c #434B51",
"n  c #434C52",
"m  c #424D54",
"M  c #4B5256",
"N  c #4C5357",
"B  c #595750",
"V  c #5B5A53",
"C  c #5E5C55",
"Z  c #5E5D55",
"A  c #605F58",
"S  c #495764",
"D  c #455868",
"F  c #45586A",
"G  c #43586D",
"H  c #4A5A68",
"J  c #4C5B6B",
"K  c #52616E",
"L  c #55626E",
"P  c #546371",
"I  c #336497",
"U  c #3D6691",
"Y  c #386EA5",
"T  c #396FA6",
"R  c #3D73AC",
"E  c #3E74AD",
"W  c #3E78B6",
"Q  c #3F79B7",
"!  c #3F7AB9",
"~  c #406080",
"^  c #406181",
"/  c #416384",
"(  c #416485",
")  c #456686",
"_  c #436688",
"`  c #536B83",
"'  c #546C84",
"]  c #556F88",
"[  c #57718A",
"{  c #58728B",
"}  c #5C738A",
"|  c #5D748B",
" . c #59738C",
".. c #5A748D",
"X. c #557CA5",
"o. c #597CA1",
"O. c #597DA2",
"+. c #4079B4",
"@. c #407CBC",
"#. c #407DBD",
"$. c #417FC0",
"%. c #417FC1",
"&. c #5580AC",
"*. c #5480AD",
"=. c #5E85AD",
"-. c #7696B5",
";. c #4281C3",
":. c #4383C7",
">. c #4383C8",
",. c #4384C8",
"<. c #4485C9",
"1. c #4486CB",
"2. c #4588CC",
"3. c #4588CD",
"4. c #468BD0",
"5. c #478CD3",
"6. c #478CD4",
"7. c #488ED7",
"8. c #488FD7",
"9. c #4A91D9",
"0. c #4E93DA",
"q. c #4F93DA",
"w. c #5692D1",
"e. c #5D99D5",
"r. c #5295DB",
"t. c #5296DB",
"y. c #5698DC",
"u. c #5798DC",
"i. c #5B9ADB",
"p. c #5A9ADC",
"a. c #5E9DDD",
"s. c #6394C6",
"d. c #6494C6",
"f. c #6596C7",
"g. c #6796C8",
"h. c #6598CD",
"j. c #669ACF",
"k. c #679ACF",
"l. c #689CD1",
"z. c #699CD1",
"x. c #6A9ED3",
"c. c #6D9FD3",
"v. c #6DA0D6",
"b. c #6FA1D6",
"n. c #6EA2D8",
"m. c #70A0D3",
"M. c #71A4DA",
"N. c #75A7DB",
"B. c #73A6DC",
"V. c #75A8DE",
"C. c #75A9DE",
"Z. c #78AADE",
"A. c #77AAE0",
"S. c #77ABE1",
"D. c #78ABE0",
"F. c #7BAFE4",
"G. c #7CAFE4",
"H. c #7FB1E5",
"J. c #83AFDC",
"K. c #88B0DB",
"L. c #89B2DC",
"P. c #83B3E6",
"I. c #83B4E6",
"U. c #87B6E7",
"Y. c #8AB6E4",
"T. c #8BB8E7",
"R. c #8FBAE8",
"E. c #8FBBE8",
/* pixels */
"A A A A A A A A A A A A A A A A A A A A ",
"C C C C C C C C C V C C C C C C C C A C ",
"V V V V V V V V V V V V V V V V V V V V ",
"B B B B B B B B B B B B B B B B B B B V ",
"v v v v v v v v v v v v v v v v v v v v ",
"c c c c c c c c c x c c c c c c c c v x ",
"x x x k h < $ $ $ $ $ = = = > h k x x x ",
"z z f N -.L.E.E.E.E.E.E.E.E.K.-.M f l z ",
"l f L Y.T.T.T.T.T.T.T.T.T.T.T.T.Y.L f l ",
"k , J.U.U.U.U.U.U.U.U.U.U.U.U.U.U.J.< 2 ",
"< P I.I.I.I.I.I.P.P.I.P.P.P.P.P.P.P.L 1 ",
"< } H.H.H.H.H.I.H.H.H.H.H.H.H.H.G.P.| = ",
"- | F.H.F.F.=.0 V.H.F.Z.0 =.P.F.Z.H...= ",
"- ..H.D.S.F.V.r @ N.N.O r Z.A.A.D.F.} , ",
"- [ Z.D.S.S.S.V.e O O e C.S.C.A.V.S.} = ",
"$ [ C.C.V.V.V.V.m.. . v.C.C.C.C.V.V.[ = ",
"% { V.M.V.M.V.c.# w w @ c.B.B.C.V.N.] = ",
"% ] M.M.M.M.c.@ w n.v.9 # c.M.M.M.M.] & ",
"% ] v.M.v.M.X.8 v.v.n.c.8 X.n.n.v.v.] & ",
"% ' v.v.v.v.x.x.c.m.v.v.c.c.n.x.v.c.` & ",
"% J c.l.x.c.c.c.c.c.c.l.c.c.l.l.v.c.H & ",
"% ; g.l.l.l.l.l.l.l.c.l.l.l.l.c.j.s.; $ ",
"% > S l.c.h.h.l.h.k.h.l.k.k.k.k.j.S ; $ ",
"% % : b o.s.h.h.h.h.h.h.f.k.s.o.n , & $ ",
"% % $ % : = $ $ $ $ $ $ $ $ = < $ $ $ $ ",
"% % $ $ % $ $ $ $ $ $ $ $ $ $ $ $ $ $ $ ",
"$ $ $ $ $ $ $ $ $ $ $ $ $ $ $ $ $ $ $ $ ",
"$ $ $ $ $ $ $ $ $ $ $ $ $ $ $ $ $ $ $ & ",
"$ $ % % $ $ $ $ = = - > & 1 - - $ = - & ",
"A A A A A A A A A Z C Z V A V A V A A V ",
"C C C C C C V C Z Z Z Z V Z C C C C C C ",
"V V V V V V V V V V V V V Z V V V V V C ",
"B B B B B B B B B B B B B B B B V B B B ",
"B v v v v v v v v v v v v v v v v v v v ",
"c c c c x v v x x c c c c x c c c c c c ",
"x x x l h ; % % % % % $ - $ : f k x x x ",
"z l d t U E +.W W ! W ! W +.E U t f z z ",
"l f u +.! ! W ! ! ! +.! W W W ! +.u d k ",
"2 % W @.@.#.#.@.! %.! ! ! ! %.! #.+.; k ",
"1 D #.#.%.%.%.%.%.%.;.;.;.%.;.;.! ;.u 1 ",
"> a ;.;.;.;.;.;.;.;.;.;.;.;.;.;.;.;.a > ",
"> ~ >.,.>.,.I o %.>.,.! o I ,.,.,.,.~ = ",
"= s ,.1.,.,.,.6 X ;.;.X 6 ,.,.2.,.2.^ % ",
"- ^ 1.4.2.2.,.2.5 X X 6 1.2.2.2.2.2.s % ",
"$ ^ 5.4.5.4.4.5.>..   ,.4.4.4.4.4.4.( = ",
"$ / 5.5.6.6.6.,.X 6 5 X 2.6.6.6.6.6.( = ",
"% ( 6.7.6.6.4.o 6 6.4.5 o 4.7.7.6.7.( $ ",
"% _ 9.0.9.9.Y 4 6.9.9.6.4 T 9.9.9.0._ $ ",
"% ) 0.q.q.0.0.0.q.q.q.9.q.q.9.t.q.q.) & ",
"$ G r.r.r.r.r.r.t.q.t.t.t.t.t.y.t.t.F & ",
"$ : w.u.u.u.u.u.y.y.y.y.u.p.u.p.u.w.; = ",
"$ : F i.p.p.p.p.i.i.i.i.p.p.u.p.p.F ; = ",
"$ $ ; n *.e.a.a.a.a.a.a.a.a.e.*.b ; $ $ ",
"$ = = $ , = $ & $ $ $ $ $ & & ; $ $ $ $ ",
"$ $ $ $ $ $ $ $ $ $ $ $ $ $ $ $ $ $ $ $ ",
"$ $ $ $ $ $ $ $ $ $ $ $ $ $ $ $ $ $ $ $ ",
"$ $ $ $ $ $ $ $ $ $ $ $ $ $ $ $ $ $ $ $ ",
"$ $ $ $ $ $ $ $ $ $ $ $ $ $ $ $ $ $ $ $ "
};
