/* XPM */
static char *maximizeI[] = {
/* columns rows colors chars-per-pixel */
"19 58 90 1 ",
"  c #3C3B37",
". c #3C3C37",
"X c #3D3B38",
"o c #3C3C38",
"O c #3F3E39",
"+ c #3F3F3B",
"@ c #403E3A",
"# c #413F3A",
"$ c #403F3B",
"% c #41403B",
"& c #42413C",
"* c #43423F",
"= c #44433F",
"- c #44443E",
"; c #46443F",
": c #47453F",
"> c #454440",
", c #474640",
"< c #484640",
"1 c #484642",
"2 c #494841",
"3 c #4D4B43",
"4 c #494844",
"5 c #4B4B46",
"6 c #4C4A44",
"7 c #4E4C45",
"8 c #4F4E49",
"9 c #504E46",
"0 c #504F48",
"q c #525048",
"w c #51504B",
"e c #54524A",
"r c #52524C",
"t c #56554D",
"y c #56564E",
"u c #575751",
"i c #595750",
"p c #585851",
"a c #5A5850",
"s c #585852",
"d c #5B5A53",
"f c #5A5954",
"g c #5B5B54",
"h c #5C5A54",
"j c #5E5C55",
"k c #5F5F58",
"l c #5F5F59",
"z c #605F57",
"x c #605F58",
"c c #616158",
"v c #606059",
"b c #61605B",
"n c #62615C",
"m c #63635D",
"M c #64645D",
"N c #65645E",
"B c #68675F",
"V c #69695F",
"C c #676760",
"Z c #676761",
"A c #686761",
"S c #696963",
"D c #6B6B62",
"F c #6C6B62",
"G c #6D6C63",
"H c #6D6D63",
"J c #6B6B65",
"K c #6D6C66",
"L c #6E6D68",
"P c #6F6E68",
"I c #71706A",
"U c #72716A",
"Y c #74736C",
"T c #74736E",
"R c #76756E",
"E c #767570",
"W c #787873",
"Q c #7B7A73",
"! c #7C7B73",
"~ c #7C7B74",
"^ c #7E7E77",
"/ c #807F78",
"( c #83827B",
") c #83827C",
"_ c #84837C",
"` c #85857F",
"' c #878680",
"] c #878781",
"[ c #8A8A84",
"{ c #8B8B84",
/* pixels */
"xxxxxxxxzzzzxxxxxcx",
"jjjjjjjjzdzdzzjjjjj",
"ddddddddddddajfjddj",
"iiiiiiiiadtdattidtd",
"ttttttttttttttttqtt",
"eeeeeeeeeeeeeeeeeee",
"qqqqqqqqqqqqqq9q09e",
"79772,;;=::=::39999",
"33<&0zzccccczd;=377",
"2;<VFFFGGGGGFDHd&<<",
",&VDDDDDDDHHHDDD0=<",
"$7DDDDDFDDDDCDCDM==",
"$dDFBMjxjjjjcDDCF&&",
"$dMFBj$<;;;;,NDNM&$",
"OdMMBj=MNCCj,CNCB$X",
"OdMMMj:MNNNg,MNNM@$",
"XuCxCf*ZxCCf>MMmM$@",
"@fCCmf>ZAMMf<mCCM=X",
"XixCmf>ffffr>Mmmc&X",
"OuMlCf>>><>>6mcmNOX",
"XrMmZxxxMMMmmmlmmOo",
" $mmlZxSxMMxmZmmfOo",
"XOrxmxxmxmxmxxmcO  ",
" X$8lxmlmlmllmsOOX ",
"   XO+++$O+O&OO   o",
"      XX  XX      o",
"                  o",
"                  o",
" O O XXXO    O   Xo",
"ljljljjlzcjcjcjcllc",
"jjjjjjjjjjjjjjgcjjj",
"ddddddjfddgddffggff",
"tdtidtdtiiiiiiiitdd",
"ttttttttttttttttttt",
"eeeeeeeqeeeeeeeeee0",
"qqqqqqqqqqqqqqqq0e0",
"9777,,=;>&;=<<77799",
"37,;mTQQQQQ!EL7;257",
"<<7][[[[[[[[[[[J>,,",
"=:)]]]]]]]`]`]`]l,,",
"$d_`)())_))_))((^&,",
"$D/^^^LLLLLLI/^^^&&",
"&A^Q^J&75<7,7~QQQ>O",
"$BRQED2WWWED2RRWE> ",
"$MWRIC5RRRRZ7TRRR& ",
"OcIRTZ5IRITN4TTTT> ",
"$xIUIm,TILIm<TIGT&o",
"$xIILm,zMNMf,LLGL&o",
"OjLGLm,<,111wKKJK$o",
" iCJJSSJZDJSSJAZD$ ",
" ,ZNCCDZNDZAZZZZlOX",
" OumMCNZmZZMmCNmOX ",
"  X8cmmmmmmmmmf+X o",
" XXX++++++$OOOO   o",
"      X           o",
"                  o",
"                  o",
"                  o"
};
