/* XPM */
static char *maximizeO[] = {
/* columns rows colors chars-per-pixel */
"19 58 40 1 ",
"  c #3C3B37",
". c #3D3D39",
"X c #403F3B",
"o c #43423D",
"O c #464541",
"+ c #484741",
"@ c #4C4A44",
"# c #4F4E49",
"$ c #504E46",
"% c #504F4A",
"& c #54524B",
"* c #575651",
"= c #595750",
"- c #5C5B54",
"; c #5E5D58",
": c #605F58",
"> c #63635D",
", c #676761",
"< c #686761",
"1 c #6B6A64",
"2 c #6E6E68",
"3 c #74736C",
"4 c #777670",
"5 c #787770",
"6 c #7B7A74",
"7 c #7F7F78",
"8 c #807F78",
"9 c #84847C",
"0 c #878680",
"q c #888780",
"w c #8B8B84",
"e c #908F88",
"r c #93928B",
"t c #979690",
"y c #989791",
"u c #9C9B95",
"i c #9F9E99",
"p c #A09F9A",
"a c #A2A29D",
"s c #A6A6A1",
/* pixels */
":::::::::::::::::::",
"------;;-----::---:",
"----=---------=----",
"===================",
"=&&=&=&=*&=&&*&*&&&",
"&&&&&&&&&&&&&&&&&&&",
"$$$&&&$&$$$$%%%%&$&",
"$$$$o@oo@@@@@@@#$$$",
"@$@o20wwwwww07%Oo$$",
"oo&asssssssaasa6o$o",
"ooiaaaaaaappauui2oo",
"o<ppiiuiuuuuuuuuroo",
"o9iuur9999790tttu$o",
"o8yuy9o&%%%#%trrroo",
"o6rrt9$rtrr6%rrrro ",
" 5rrr6$rrrr6%reero ",
"X4eer6$eeee6&reeeoo",
"X4eee6$ewew5&e9ewo ",
"X4eww5@5555,$ww9wo ",
".3www6&=###$:9w99o ",
".,9w99e9qq9w99999@.",
".@999999999999993o.",
" X29999999999997o .",
"  o:78998989772o   ",
"   .ooooooooooX   .",
"    .  .  ....   ..",
"            .     .",
"                  .",
"   .    ...    . ..",
"::::::::::::::::-::",
"----------:----:--:",
"---------=-=--=----",
"==================-",
"&==&=&&==&=&&==&&&=",
"&&&&&&&&&&&&&&&&&&&",
"$$&$%&%&$$$&$$&$&&$",
"$$$$@ooooooo++@$$$$",
"@@@o:466666652@+@@@",
"o@$9wewwwwewwe92o++",
"oo99q9qqq99w9999:o+",
"X-999999999999977oo",
"X1777622222227777oo",
"X16661X@@@@+@6666o.",
".,6541@5644,@4444o.",
"X,434,@3434,@4444o.",
".,333,@3333,+3333o.",
".>232>+3233>+3222o ",
"X:222>O>:::*+2222X.",
".:121>o@o+++%2111X ",
".*1,1111111111111X.",
" o,,,,,,1,,,,,,,;..",
" .=,,,>,:,,,:,,:X..",
" ..$:>>>>>>:,:=X   ",
" ...XXXXX.XX.X.   .",
"            ..    .",
"             .    .",
"                  .",
"                  ."
};
