/* XPM */
static char *maximizeA[] = {
/* columns rows colors chars-per-pixel */
"19 58 92 1 ",
"  c #3C3B37",
". c #3C3C37",
"X c #3D3B38",
"o c #3C3C38",
"O c #3F3D39",
"+ c #3F3F3B",
"@ c #403F3B",
"# c #41403B",
"$ c #42413D",
"% c #44433F",
"& c #46443F",
"* c #48473F",
"= c #444340",
"- c #454440",
"; c #474640",
": c #484741",
"> c #484743",
", c #494841",
"< c #4D4B43",
"1 c #4A4844",
"2 c #4B4A46",
"3 c #4C4A46",
"4 c #4E4C45",
"5 c #4F4E49",
"6 c #504E46",
"7 c #525048",
"8 c #51504B",
"9 c #54524A",
"0 c #56554D",
"q c #575651",
"w c #595750",
"e c #585852",
"r c #5B5A53",
"t c #5A5854",
"y c #5A5954",
"u c #5C5A54",
"i c #5E5C55",
"p c #5E5D55",
"a c #5E5E56",
"s c #5E5D58",
"d c #605F58",
"f c #606058",
"g c #62625C",
"h c #63635C",
"j c #63635D",
"k c #64635D",
"l c #65645E",
"z c #66665F",
"x c #67665F",
"c c #676760",
"v c #676761",
"b c #686761",
"n c #686862",
"m c #696862",
"M c #6A6A63",
"N c #6B6A65",
"B c #6B6B65",
"V c #6C6B65",
"C c #6E6D67",
"Z c #6E6D68",
"A c #6F6F68",
"S c #717069",
"D c #71706A",
"F c #72716A",
"G c #73726C",
"H c #74736C",
"J c #74736E",
"K c #76766F",
"L c #787770",
"P c #787771",
"I c #787871",
"U c #797871",
"Y c #797873",
"T c #797973",
"R c #7C7B73",
"E c #7C7B74",
"W c #7F7E76",
"Q c #7F7E78",
"! c #807F78",
"~ c #81817B",
"^ c #83827B",
"/ c #83837C",
"( c #84837C",
") c #84847E",
"_ c #86867F",
"` c #868680",
"' c #878680",
"] c #878781",
"[ c #8A8A83",
"{ c #8A8A84",
"} c #8B8B84",
"| c #8B8B85",
/* pixels */
"ddddddddifffffiffff",
"iiiiiiiiiiiiiiiiiii",
"rrrrrrrrrrrrrrrrrri",
"wwwwwwwwwwwrrwwwwwr",
"0000000000000000909",
"9999999999999997999",
"7777777777777777777",
"4644,;&&&&&&&*<4476",
"<<;;iKPPYPUUKC3&,<4",
",*2)[[{{{{[{[[[C;,,",
"&%~`____________s%*",
"#t)~_~(~(~(~~((~W%&",
"+m!!QPCCCCCCS~!WW%+",
"#mEEEV@>233><LRUU;+",
"@kUUPm3PULLm3LLUK%X",
"+kKKLv2LKKKx>KLKK%+",
"+xSKSv2HGKGv>KSLS%+",
"OfHSSj:SSSSj2GSSS% ",
"OiAAAj:gggfe&AAAC@ ",
"+sBZZj,,&22;7CNZC% ",
".qNNNmNmBNmNVVmNm%o",
".=mvmvmmmmmmmmmmiOo",
" +0vkvvxvhxvkkkg% .",
" O+5hkhhhxhhvkw%  .",
"    O++#+@@@@@+   o",
"    ..            o",
"                  o",
"           .      o",
"     o  ......oo .+",
"ddddifgsfaffsffasfu",
"iiiiiiriiiiiiiiiiii",
"rrrrrrrrrrrrrirruuu",
"wwwwrwwwwwwwwwwwwwr",
"0000000000000000000",
"9999999779999999997",
"7777777777777777777",
"4444,*;;=;;=>&,6666",
"<<&>sKYUUUPUPC5*,23",
",*2`{{{{{{{{{{[N;;,",
"&&~`[`[`]]````__i%,",
"@r~(_~()_))~((~(W%%",
"#b~(!RCVZVCCS!W!W%+",
"#m!LRV+23,3>3RPUK:O",
"@xUUPm2LPYPm>PPUK% ",
"@kPLLv>LKKGx3KKHK%+",
" hHHGx2HGKSm>HHHS% ",
"#fSHSk2SSSSk>SSSZ% ",
"@fCCCg%gggfr>CCZB%o",
"@uBCBx::;>>>7ZNCN%o",
"XwNmmMBmmmmmmmmmv+.",
"O%vvvvvvvvvvvvvvi+ ",
" +9vvjxxvxkmvxhh% .",
"  +4fhhhgggdggr++.o",
"   ++#%+++@@++X  .o",
"                  o",
"                  o",
"                   ",
"                   "
};
