/* XPM */
static char *minimizeI[] = {
/* columns rows colors chars-per-pixel */
"19 58 91 1 ",
"  c #3C3B37",
". c #3D3B38",
"X c #3C3C38",
"o c #3E3C39",
"O c #3F3E39",
"+ c #3F3F3A",
"@ c #403E3A",
"# c #413F3A",
"$ c #403F3B",
"% c #41403B",
"& c #42413C",
"* c #43423F",
"= c #45433E",
"- c #46443F",
"; c #47453F",
": c #454440",
"> c #474640",
", c #484640",
"< c #494841",
"1 c #4D4B43",
"2 c #494844",
"3 c #4E4C45",
"4 c #4F4D45",
"5 c #4D4C47",
"6 c #4F4E49",
"7 c #504E46",
"8 c #504F48",
"9 c #525048",
"0 c #53524B",
"q c #54524A",
"w c #53514D",
"e c #54534D",
"r c #56554D",
"t c #575651",
"y c #595750",
"u c #5B5A53",
"i c #5A5954",
"p c #5B5B54",
"a c #5C5A54",
"s c #5E5C55",
"d c #5E5D55",
"f c #5E5D58",
"g c #5F5F58",
"h c #5F5F59",
"j c #605F57",
"k c #605F58",
"l c #606058",
"z c #616158",
"x c #61605B",
"c c #64635B",
"v c #62625C",
"b c #63635D",
"n c #64635D",
"m c #65645E",
"M c #67675F",
"N c #68675F",
"B c #69695F",
"V c #676760",
"C c #686761",
"Z c #696963",
"A c #6B6B62",
"S c #6C6B62",
"D c #6D6C63",
"F c #6D6D63",
"G c #6B6B65",
"H c #6C6B65",
"J c #6F6E68",
"K c #6F6F68",
"L c #717069",
"P c #71706A",
"I c #73726B",
"U c #73726C",
"Y c #73736C",
"T c #74736C",
"R c #74736E",
"E c #767570",
"W c #787770",
"Q c #797873",
"! c #7B7A73",
"~ c #7B7A74",
"^ c #7C7B74",
"/ c #7F7E77",
"( c #807F78",
") c #82827B",
"_ c #83827B",
"` c #83827C",
"' c #85857F",
"] c #86867F",
"[ c #878781",
"{ c #8A8A84",
"} c #8B8B84",
/* pixels */
"kkkkkkkkzzszjkszlzl",
"sssssssssssssssssss",
"uuuuuuuuuuuuuuuuuup",
"yyyyyyyyyyyuuyyyyyu",
"rrrrrrrrrrrrrrrrrrr",
"qqqqqqqqqqqqqqqqq9q",
"9999999999999999999",
"3733<>--------13377",
"11,&9szzzzzzju-=<31",
"<-,BDDDDDDFDDSDu&<<",
">&BAASAAAADFAAASq--",
"$3AAABAAMAFFANACm&-",
"$uBANNANMMMBVBBAA&&",
"$umSNNNCBmFmVmCmm&$",
"OunmNNNmmmMMBCmNV&O",
"OummmcuuspppsnmNn+ ",
".iVVVg::,>::5VbVm&X",
"oikkVhCCVgVCVgVVm&X",
".ynVkVVkkVbkkVVkb%X",
"XpCfVfhxVkVkVkgVb$X",
"XwgbxxVVkVbkbkVkb$X",
"X:VgVkhxbkbbbbkVy$X",
"..wkhVhVhVgkbkkk$  ",
"X.$5fxxkkhkVgbp+ OX",
"X. X.$$$$+$+++XX XX",
"X.  .. .   +     XX",
"XX                X",
"XX         X      X",
" .         .     XX",
"jksggkkkzkszkkggsll",
"jssssssssssssssssss",
"iispiiipuupuuuuuups",
"yyyyyyyyyyyyyyyyyyy",
"9rrrrrrrrrrrrrrreyy",
"qqqqqqqqqqqqqqqqqq8",
"8q88q8887q7qq7q7998",
"7773,,=,>=;=;;17777",
"11,:nR!!QQQQEJ3;,33",
";;3'{{}}{}{{{{{H:,2",
";=_[[[[''['['['[g=,",
"$u___)_)``___)__/&&",
"$S()()(`()(((//(/=&",
"%A!!!^Q^Q!!!!!Q!Q=$",
"$n!WW!QEQEWWWRQEW= ",
"$CEREUVAVVVADEIWL:.",
"OzRRUC222222rIIIR:+",
"%zPJLPPPPPLLTLLLP$X",
"$zKLKKKJJJKDKJJDJ+X",
"OsZKZHHKHHHHHHZKZ$X",
" uAZHHAAZCHZHZZZH$X",
"X*VAVVVVVVCCCVVVg$.",
"XXtbVVVVbVVnnVVg$.X",
"XXX3gVgbbknbnki+XXX",
"XXXX.+++$+$$$$X XXX",
"X   ..XX    .X    X",
"     ...   .XX    X",
"                  X",
"                  X"
};
