/* XPM */
static char *minimizeO[] = {
/* columns rows colors chars-per-pixel */
"19 58 38 1 ",
"  c #3C3B37",
". c #3D3D39",
"X c #403F3B",
"o c #43423E",
"O c #464541",
"+ c #484741",
"@ c #4C4A44",
"# c #4F4E49",
"$ c #504E46",
"% c #514F4B",
"& c #54524A",
"* c #575651",
"= c #595750",
"- c #5C5B54",
"; c #5E5D58",
": c #605F58",
"> c #63635D",
", c #676760",
"< c #6B6B64",
"1 c #6F6E68",
"2 c #73726C",
"3 c #767570",
"4 c #787770",
"5 c #7B7B74",
"6 c #7F7F78",
"7 c #807F78",
"8 c #84847C",
"9 c #878680",
"0 c #8B8B84",
"q c #908F88",
"w c #94938C",
"e c #979690",
"r c #989791",
"t c #9B9A94",
"y c #9F9E99",
"u c #A09F9A",
"i c #A2A29D",
"p c #A6A6A1",
/* pixels */
":::::::::::::::::::",
"------;;-----:----:",
"----=--------------",
"===================",
"&=&&&=&&&&=&&==&&&&",
"&&&&&&&&&&&&&%&&&&&",
"&&&$&&&&&&$&&&%%&&$",
"$$$$o@oo@$o@@o@#$$$",
"o$oo18qq000096%Oo$$",
"$o&ippipipppiii5o$o",
"ooyiiiiiyiyyuyyy<oo",
"o,uuyyyyyyttttttroo",
"o8ttttttttrrrreer@o",
"o7trrtrrewewwewwwoo",
"X5wwwwwwwwwwwwqwwo ",
"X4wwwq5555656wqqwo ",
"X4qqq6&&&#&&:qqqqoX",
"X4qqqqqq0q0qqq808@.",
"X4q00q8q00088q00qo.",
"X20008q800q808088o.",
".,888q8q880888088o.",
".@088888888888882o.",
".X<8888888888786o..",
"..o:68787788761oX..",
".  .Xooooooo+oo   .",
"    .. .           ",
"                  .",
"                  .",
"                 ..",
"::::::::::::::::-::",
"-:::-:-:--:--:-----",
"===-=-==-=--=------",
"================-*=",
"&==&&**&**=&&==&&&=",
"&&&&&&&&&&&&&&&&&&&",
"&$$&$&$$$$&$&$&$$&$",
"$$$$+@OOOOOO++@$$$$",
"@@++:255544421@+@@@",
"++@8000000000081o@@",
"oo88999999999088:oO",
"o-888888888868866oo",
".<666666656666666oX",
"o,555555555545555oX",
".,454445444444334X.",
".,4432,,,,,><3323o.",
"X>222,+++@+@&2222o.",
"X:211222222122221o ",
".:1111111111<<2<1X ",
".:1<11<<<<<<<<<<<o.",
".=<,,<<,<<<<<<<<,X.",
".o,,,,,,,,,,,,,,-..",
" .=,,,,,>,>,>>>>o..",
"  .$:,>:>>>>>>-o  .",
"   ....oXX.X...   .",
"      .           .",
"                  .",
"                  .",
"                  ."
};
