/* XPM */
static char *minimizeA[] = {
/* columns rows colors chars-per-pixel */
"19 58 85 1 ",
"  c #3C3B37",
". c #3C3C37",
"X c #3D3C37",
"o c #3D3B38",
"O c #3C3C38",
"+ c #3F3E39",
"@ c #3E3E3A",
"# c #403F3B",
"$ c #41403B",
"% c #43423E",
"& c #45423E",
"* c #46443F",
"= c #48473F",
"- c #444340",
"; c #454440",
": c #474640",
"> c #494841",
", c #4A4842",
"< c #4D4B43",
"1 c #4A4844",
"2 c #4B4B46",
"3 c #4E4C45",
"4 c #4D4C47",
"5 c #4F4E49",
"6 c #504E46",
"7 c #525048",
"8 c #54524A",
"9 c #54534E",
"0 c #56554D",
"q c #575651",
"w c #595750",
"e c #5B5A53",
"r c #5A5854",
"t c #5A5954",
"y c #5E5C55",
"u c #5E5D55",
"i c #5D5D58",
"p c #5E5D58",
"a c #605F58",
"s c #606058",
"d c #63635C",
"f c #63635D",
"g c #64635D",
"h c #65645E",
"j c #676760",
"k c #686862",
"l c #696862",
"z c #696963",
"x c #6B6A64",
"c c #6B6B65",
"v c #6C6B65",
"b c #6C6C65",
"n c #6F6E68",
"m c #6F6F68",
"M c #73726B",
"N c #73736C",
"B c #74736C",
"V c #74736D",
"C c #74736E",
"Z c #76756F",
"A c #787770",
"S c #787771",
"D c #797871",
"F c #787872",
"G c #787873",
"H c #7B7A74",
"J c #7B7B74",
"K c #7C7B74",
"L c #7F7E76",
"P c #7F7E77",
"I c #7F7E78",
"U c #7F7F78",
"Y c #807F78",
"T c #81817B",
"R c #83827B",
"E c #83837C",
"W c #84837C",
"Q c #84847E",
"! c #86867F",
"~ c #868680",
"^ c #878781",
"/ c #8A8A83",
"( c #8B8A84",
") c #8B8B84",
"_ c #8B8B85",
/* pixels */
"aaaaaaaaysssssyssss",
"yyyyyyyyyyyyyyyyyyy",
"eeeeeeeeeeeeeeeeeey",
"wwwwwwwwwwweewwwe0e",
"0000000000000000808",
"8888888888888888888",
"7777777777777777777",
"3633>:*******=<3376",
"<<::aVDDFFFFZx3*><3",
">=2Q(((((((((()b=>>",
":%T~!!!!!!Q!!!!!i**",
"#rQTQTRTRRTTRRRTL%*",
"#lYYPPIPTLYPPPPLL%#",
"#lHHHHHHJAYAAALAJ*#",
"#jADDDDDAAAJAAAAS%O",
"#gZZZMjjljjjbAAZZ*O",
"#fVCVl1211129MZMM%.",
"#aMMMMmMMMmMMMMMM%O",
"OammvmmmmmmmxmMbb%O",
"#ambbvbbvxmbbbbbb%O",
" wxxxxxxvxxxxxxxb%O",
" %jlljkklljlllkkpOO",
"o#qjljglgjjjhjhg% .",
"ooO4sgggggffgge#. O",
"   O#O#%#######   O",
"                  O",
"          ..      O",
"         ...      O",
"     o  +..+...O .$",
"aaaapaaaiyyiyssspiy",
"yyyyyyyyyyyyyyyyyyy",
"eeeeeeeeeeeeepeeeey",
"wwwwe0ewwwewwwww0e0",
"0000000000000000000",
"8888888778888878888",
"7777777777777777776",
"3333>*%%1-#1==13<66",
"<<*1dZJJDHDDDn4=2=<",
">:2~(/__//))))(l11>",
"**T~!~^^~~~~~~~~y%>",
"#eQRRRTRQYY/YYQQP%%",
"$lYTYRYYYYYHYYHYP-#",
"$lHHHYJHHHHDYDDHD:#",
"$hDDDZDDDDDFZDZDD% ",
"#dAAVMgjjhlhlVAVZ%.",
"#dZMFx4122>30VMVV%.",
"%sMMnnmMmMMnnMMvn%O",
"#svvnnnmmmnnbMvnn%O",
".yxbmxbbxbvxbbxxx:O",
".wlxxxxxxlxxxxxxxOO",
" :ljjjkjjjjjjjjjpOO",
" O0jjjjffjjjfjjp@OO",
"  #5pfffgffahheOoOO",
"   OO%%O%O##OO# oOO",
"      o     OO  o O",
"                  O",
"                  O",
"                  O"
};
