/* XPM */
static char *restoreA[] = {
/* columns rows colors chars-per-pixel */
"19 58 93 2 ",
"   c #3C3B37",
".  c #3C3C37",
"X  c #3D3B38",
"o  c #3C3C38",
"O  c #3F3E39",
"+  c #3F3E3A",
"@  c #403E3B",
"#  c #403F3B",
"$  c #41403B",
"%  c #45423E",
"&  c #44433F",
"*  c #44443E",
"=  c #46443F",
"-  c #48473F",
";  c #444340",
":  c #454440",
">  c #474640",
",  c #484742",
"<  c #484743",
"1  c #494841",
"2  c #4D4B43",
"3  c #4B4945",
"4  c #4B4B46",
"5  c #4E4C45",
"6  c #4F4E49",
"7  c #504E46",
"8  c #525048",
"9  c #54524A",
"0  c #56554D",
"q  c #56564E",
"w  c #575752",
"e  c #595750",
"r  c #595953",
"t  c #5B5A53",
"y  c #5A5854",
"u  c #5A5A54",
"i  c #5C5A54",
"p  c #5C5B55",
"a  c #5E5C55",
"s  c #5E5D55",
"d  c #5E5D58",
"f  c #605F58",
"g  c #606058",
"h  c #62615A",
"j  c #62625A",
"k  c #63635D",
"l  c #64635D",
"z  c #64645D",
"x  c #65645E",
"c  c #676760",
"v  c #676761",
"b  c #696861",
"n  c #686862",
"m  c #696862",
"M  c #6A6A63",
"N  c #6B6A65",
"B  c #6B6B65",
"V  c #6C6B65",
"C  c #6C6C65",
"Z  c #6D6C66",
"A  c #6E6E67",
"S  c #6F6E68",
"D  c #6F6F68",
"F  c #71716A",
"G  c #73736C",
"H  c #74726C",
"J  c #74736C",
"K  c #74736E",
"L  c #76756F",
"P  c #767570",
"I  c #787770",
"U  c #797871",
"Y  c #787873",
"T  c #797873",
"R  c #7B7A73",
"E  c #7B7A74",
"W  c #7B7B74",
"Q  c #7F7E76",
"!  c #7F7E78",
"~  c #807F78",
"^  c #81817B",
"/  c #83827B",
"(  c #84847E",
")  c #85857F",
"_  c #86867F",
"`  c #868680",
"'  c #878680",
"]  c #878781",
"[  c #8A8A83",
"{  c #8A8A84",
"}  c #8B8A84",
"|  c #8B8B84",
" . c #8B8B85",
/* pixels */
"f f f f f f f f a j a j a j g g g g g ",
"a a a a a a a a a a a a a a a a a a a ",
"t t t t t t t t t t t t t t t t t t p ",
"e e e e e e e e e e t t e e e e e e e ",
"0 0 0 0 0 0 0 0 0 0 0 0 0 0 0 0 0 0 q ",
"9 9 9 9 9 9 9 9 9 9 9 9 9 9 9 8 9 8 9 ",
"8 8 8 8 8 8 8 8 8 8 8 8 8 8 8 8 8 8 8 ",
"5 7 5 5 1 > = = = = = = = 1 2 5 5 7 7 ",
"2 2 > > f H I I I I E Y L A 5 = 4 2 2 ",
"1 - 4 ( [ [  . . .} } } [ [ [ V = 1 1 ",
"> % ^ ` _ _ _ _ _ _ ( ` _ _ _ _ a % - ",
"# y ( ^ / ( ^ ^ / ^ ^ ^ / / ^ ^ Q * = ",
"+ m ~ ~ ! ! ~ ~ ^ ~ ~ ~ Q Q Q Q Q ; ; ",
"$ m W W E N V m m b m N N G ~ U U > + ",
"+ x U U I   4 4 2 2 5 1 % u U P P >   ",
"+ x P L P   L L L L P L t w P P P $   ",
"@ j P G G   G F H G P H u e P H G $ + ",
"@ j S G F . x z l l l l 6 0 F F F ; o ",
"# d A S A 1 > 4 < < < < < u A A A > . ",
"# a A V V A A A V A A V V A N A N $ . ",
"+ w m N N m C m V N m V N b N N N + o ",
"  % n m n m m n b v m m b v N b a + o ",
"  + w x v l v x x x x n l b v k ;   o ",
"    + 6 j z x x x k k z l k u + o   o ",
"      O O + + + + $ + O + + + .     o ",
"        .   . O     +   .           o ",
"            .           .           o ",
"                        o           o ",
"      +   o     + . . o   . . .   . o ",
"d j a a a d j d a j a j a j a g d g g ",
"a a a a a a a a a a a a a a a a a a a ",
"t t t t t t t t t t t t u u t t a u u ",
"t t e e t e e e e e t e e e e e e e t ",
"9 0 0 9 0 0 0 0 0 0 0 0 0 0 0 0 0 0 0 ",
"9 9 9 9 9 9 9 8 8 9 9 9 9 9 8 9 9 9 8 ",
"8 8 8 8 8 8 8 8 8 8 8 8 8 8 8 8 8 8 8 ",
"7 5 4 4 1 - > ; ; > % < > < 2 4 5 7 7 ",
"2 2 > > l H E I E U U I P A 4 - 4 1 2 ",
"1 % 5 _ }  . .} } }  .[ [  .} V > > 1 ",
"> % ( ` ` ` [ _ ` ` ` ` ` _ _ _ d ; > ",
"$ t _ ^ / / ^ _ _ ^ ~ ( ~ ( / / Q $ > ",
"$ m Q ~ ~ ^ ! ! Q ~ ~ ~ ~ ~ W ~ Q ; $ ",
"$ m U ~ R A N C N V V V V H I W U > + ",
"+ m U I L O 1 5 4 < 4 < % a I I P ;   ",
"+ x P L L O L L P P P P e y G P P $ + ",
"+ j H G H   F H H P S G e w G H F ;   ",
"# j F L S   x x j x l l 6 w S F A > o ",
"+ g A A A 4 - < < < < > < a S A A $ o ",
"+ t A A N A A N N N C N C A N A C $ o ",
"  t A m b b m b N n N n n n m n m $ o ",
"  $ m x n n m m c c n x n n n v a + . ",
"  + w x x x x x c c c z x x z j ; . . ",
"    + 6 j z z z k k k k k k t + o   o ",
"        + $ + + + + + + + + +       o ",
"            +           . .         o ",
"                                    o ",
"                                    o ",
"                                    o "
};
