/* XPM */
static char *restoreI[] = {
/* columns rows colors chars-per-pixel */
"19 58 96 2 ",
"   c #3C3B37",
".  c #3C3C37",
"X  c #3D3B38",
"o  c #3C3C38",
"O  c #3E3C39",
"+  c #3F3E39",
"@  c #3F3F3A",
"#  c #413F3A",
"$  c #403F3B",
"%  c #41403B",
"&  c #42413C",
"*  c #45423E",
"=  c #46443F",
"-  c #47453F",
";  c #454440",
":  c #464440",
">  c #474640",
",  c #484640",
"<  c #484743",
"1  c #494841",
"2  c #4D4B43",
"3  c #4B4945",
"4  c #4B4B46",
"5  c #4C4A44",
"6  c #4E4C45",
"7  c #4F4E49",
"8  c #504E46",
"9  c #504F4A",
"0  c #525048",
"q  c #50504A",
"w  c #54524A",
"e  c #53514D",
"r  c #56554D",
"t  c #55544F",
"y  c #56564E",
"u  c #575752",
"i  c #595750",
"p  c #585851",
"a  c #5A5850",
"s  c #595853",
"d  c #5B5A53",
"f  c #5C5A54",
"g  c #5C5C55",
"h  c #5D5C55",
"j  c #5E5C55",
"k  c #5F5F59",
"l  c #605F57",
"z  c #605F58",
"x  c #606058",
"c  c #616158",
"v  c #606059",
"b  c #61605B",
"n  c #62615A",
"m  c #63635C",
"M  c #63635D",
"N  c #64635D",
"B  c #65645E",
"V  c #68675F",
"C  c #69695F",
"Z  c #676760",
"A  c #676761",
"S  c #686761",
"D  c #6A6963",
"F  c #6B6B62",
"G  c #6C6B62",
"H  c #6D6C63",
"J  c #6D6D63",
"K  c #6B6A65",
"L  c #6B6B65",
"P  c #6C6C65",
"I  c #6E6E67",
"U  c #6E6E68",
"Y  c #717069",
"T  c #73726C",
"R  c #74736C",
"E  c #74736E",
"W  c #76756E",
"Q  c #76756F",
"!  c #767570",
"~  c #797873",
"^  c #797973",
"/  c #7B7A73",
"(  c #7C7B74",
")  c #7E7E77",
"_  c #7F7E78",
"`  c #7F7F78",
"'  c #807F78",
"]  c #82827B",
"[  c #83827B",
"{  c #83827C",
"}  c #83837C",
"|  c #85857F",
" . c #878780",
".. c #878781",
"X. c #8A8A84",
"o. c #8B8B84",
/* pixels */
"z z z z z z z z j n j n x j n x j n x ",
"j j j j j j j j j j j j j j j j j j x ",
"d d d d d d d d d d d d j d d d d d d ",
"i i i i i i i i a a a d d r d r d r d ",
"r r r r r r r r r r r r r r r r 0 r r ",
"w w w w w w w w w w w w w w w w w w w ",
"0 0 0 0 0 0 0 0 0 0 0 0 0 0 0 0 0 0 0 ",
"6 8 6 6 1 > = = = = = = = = 2 6 6 8 8 ",
"2 2 , & 8 j n n c c c c l d = = 1 6 2 ",
"1 = , C J J J J J J J J J G G f & 1 1 ",
"> & C F F F J F F F J J G G F F e = = ",
"$ 6 F F C F F F F F C G V F S F B & = ",
"$ d C F V V F B B C F B F V F V C & & ",
"$ d B G V j j j g j g g j x V B B & & ",
"+ d N B V   = - = > > > @ e B V V @ + ",
"+ d B B B   B B B B B B e q B Z B & . ",
"$ i Z Z N o M Z N Z N Z 9 9 Z M B & . ",
"$ s N z Z o f i f s s i 4 9 z Z B & o ",
"o i N Z z : = = , , ; > < t M M M & o ",
"o i z Z z Z M M M N M M M M M z M @ o ",
"o e N N M M z M M N M M k M M M n & o ",
"o $ z N M M M M M z M M M A z A i + o ",
"o o t M M z l M k M k M M z M k &     ",
"o o + 6 k z M k M k M k z k u & o     ",
"o     o $ $ $ + + + $ + $ + +       o ",
"                    o o   +         o ",
"                                    o ",
"                                    o ",
"  .   .         o .   . . . . .   o o ",
"j n j l k l z z x x j n j x j x k k z ",
"j j j n j j f f j j j j j j j n j j j ",
"s g s j s j s f d d d d d j f f s j s ",
"d d i i d i i i i i d i i d i i i i i ",
"r 0 0 i r r r r r r r r w r r w r r i ",
"w w w w w w w 0 0 w w w w w w w w w w ",
"0 0 0 0 0 0 0 0 0 0 0 0 0 0 0 0 w 8 9 ",
"8 8 6 6 , > = = = = = = , , 2 6 9 8 8 ",
"2 6 > = M E ^ ^ ^ ~ ^ ^ ! U 6 > , 6 6 ",
"= = 6 ..X.X.X.o.X.X.o.X.X.X.X.P $ , 6 ",
"= = ] ..........| ..| ..| ..| ..k = ; ",
"& a [ [ [ } } } } } ' ] } } } } ` $ & ",
"$ F [ [ ' ] ` ` ' ' ` ` ' ' _ _ ` ; & ",
"$ F ^ / ( K P D K F D D D W ~ / ( ; + ",
"+ B Q ~ ^ + 6 , 6 3 3 3 = i W ~ E ; o ",
"+ V ! Q Q   Q Q Q Q Q ! i s E E ! & + ",
"+ M E T T   T W W T T T s u T W T & o ",
"+ n T T T o B M n N M M 9 s Y Y W $   ",
"+ n U J U < < < 1 , 3 , , f K U U $   ",
"+ k D P U D P U D K K D U U U D K @ o ",
"  u F D P D F P D D K D Z F D K K $ o ",
"  & Z Z Z Z Z Z Z A Z Z Z Z Z A h $ o ",
"  + u B Z M Z Z Z M Z Z Z N Z z $ o o ",
"    $ 7 k M M M M M z N N N i $ X o o ",
"      X + @ $ @ $ + $ $ + $ o   X o o ",
"            o o         o o     X   o ",
"          o o o           o         o ",
"                                      ",
"                                      "
};
