/* XPM */
static char *restoreO[] = {
/* columns rows colors chars-per-pixel */
"19 58 37 1 ",
"  c #3C3B37",
". c #3D3D39",
"X c #403F3B",
"o c #43423E",
"O c #464541",
"+ c #484742",
"@ c #4C4A44",
"# c #4F4E49",
"$ c #504E46",
"% c #504F4A",
"& c #54524A",
"* c #575752",
"= c #595750",
"- c #5C5B54",
"; c #605F58",
": c #64635D",
"> c #676761",
", c #6B6B64",
"< c #6F6E68",
"1 c #74736C",
"2 c #767570",
"3 c #787770",
"4 c #7B7B74",
"5 c #7F7F78",
"6 c #84847C",
"7 c #878680",
"8 c #888780",
"9 c #8B8B84",
"0 c #908F88",
"q c #93928B",
"w c #979690",
"e c #989791",
"r c #9B9A94",
"t c #9F9E99",
"y c #A09F9A",
"u c #A2A29D",
"i c #A6A6A1",
/* pixels */
";;;;;;;;:-;:;;;;;;;",
"--;--;----------;-;",
"--=-=------=-------",
"===================",
"&=&&=&=&=&=&==&*&==",
"&&&&&&&&&&&&&&&&&&&",
"&&&$&&$&&$$&$$%%$$&",
"$$$$o++o@@++@+@#$@$",
"o$o$,799099975%+o$@",
"@o&tiiiiiiuuuiy4@@o",
"ootuuuuuyyyytttt,oo",
"o>ttttttttttrrrreoo",
"o6rrrterwwwwrweeeoo",
"o4eee665555559qqqoo",
"o3www &&%%%%O>qqqoo",
"o3qq0 0qwqqq>>00qo ",
"X3q00 000000>>000oo",
"o1000 443434->609o.",
"X1096&=&##$&$<069o ",
"X1060960989966606o.",
" >696606696666666o ",
" @666666666666663o ",
" o<6666666666555o  ",
"  o;4656666665<oo  ",
"   .ooooooooooX.   ",
"      ..  ....    .",
"                  .",
"                  .",
"               .  .",
";;;;;;;;;;;;;;;;;;;",
"---------;-----;;-;",
"--------=------=-=-",
"--==============-==",
"&&&&&==&=&&&=&&=&=&",
"&&&&&&&&&&&&&&&&&&&",
"$&$&&##&$&$&&$&&$&$",
"$$$@++o++oooo+@$$$$",
"@@@+;13343443<$o@@@",
"++@690099909906<o@+",
"oo66767777696666;oo",
"o*666666666666655oo",
"X,555555555545555oo",
"X,444,,,,,,,,1444oX",
".>433.@@@@@+o*223o.",
"X:221.123122*-221o.",
".>111 111111**111o.",
"X;<11 ::::::#*<<<o.",
"X;<<<++++++++-<<,o.",
"X-<,<<,<,,,<,,<<,o.",
".*>,,>>>,,,>>,>>>X ",
" o>>>>>>>>>>>>>>-X ",
" X=:>>>>>:::>>>;o..",
"  X$;::::::::;*X  .",
"   XXXXXXXXXXXX   .",
"                   ",
"                  .",
"                  .",
"                   "
};
