/* XPM */
static char *app_32x32[] = {
/* columns rows colors chars-per-pixel */
"32 32 76 1 ",
"  c #3C3C3B3B3737",
". c #3D3D3C3C3838",
"X c #40403F3F3B3B",
"o c #414140403C3C",
"O c #434342423E3E",
"+ c #444443433F3F",
"@ c #474746464242",
"# c #4B4B4A4A4747",
"$ c #4F4F4E4E4B4B",
"% c #50504F4F4B4B",
"& c #535352524F4F",
"* c #565655555252",
"= c #585857575353",
"- c #5B5B5A5A5656",
"; c #5D5D5C5C5959",
": c #5F5F5E5E5B5B",
"> c #60605F5F5C5C",
", c #636362625F5F",
"< c #666665656262",
"1 c #686868686464",
"2 c #696968686565",
"3 c #6C6C6B6B6868",
"4 c #6E6E6D6D6A6A",
"5 c #757575757272",
"6 c #767675757373",
"7 c #7B7B7A7A7777",
"8 c #7E7E7D7D7A7A",
"9 c #80807F7F7D7D",
"0 c #818180807E7E",
"q c #838382828080",
"w c #888888888585",
"e c #8A8A89898787",
"r c #8D8D8C8C8A8A",
"t c #929291918F8F",
"y c #929292929090",
"u c #959595959393",
"i c #979796969494",
"p c #999999999797",
"a c #9C9C9C9C9A9A",
"s c #9F9F9E9E9C9C",
"d c #A1A1A0A09F9F",
"f c #A3A3A3A3A1A1",
"g c #A5A5A4A4A2A2",
"h c #A7A7A7A7A5A5",
"j c #A9A9A8A8A6A6",
"k c #ACACABABAAAA",
"l c #AFAFAFAFADAD",
"z c #B4B4B4B4B2B2",
"x c #B6B6B6B6B4B4",
"c c #B9B9B8B8B7B7",
"v c #BCBCBCBCBBBB",
"b c #BEBEBEBEBCBC",
"n c #C0C0BFBFBEBE",
"m c #C8C8C8C8C7C7",
"M c #CACACACAC9C9",
"N c #CDCDCDCDCCCC",
"B c #D3D3D3D3D2D2",
"V c #D7D7D7D7D6D6",
"C c #DBDBDBDBDADA",
"Z c #DDDDDCDCDCDC",
"A c #E1E1E1E1E0E0",
"S c #E3E3E3E3E2E2",
"D c #E6E6E6E6E5E5",
"F c #E7E7E6E6E6E6",
"G c gray92",
"H c #ECECECECEBEB",
"J c gray93",
"K c gray94",
"L c #F3F3F3F3F2F2",
"P c #F4F4F3F3F3F3",
"I c #F4F4F4F4F4F4",
"U c #F8F8F8F8F8F8",
"Y c gray98",
"T c #FBFBFBFBFBFB",
"R c gray99",
"E c gray100",
/* pixels */
"                                ",
"                                ",
"                                ",
"                                ",
"        7: OAc                  ",
"       6EC<aEB                  ",
"       XDEEEEG<:w               ",
"     @O3EEEEEEYEE:              ",
"     zEYEEEYEEEEgO              ",
"     kIEEEr dEEEO               ",
"      ,EEE* <EEEt#              ",
"      &EEEN0BEEEEn              ",
"     ,JEEEEEEEEMn0 ..2,         ",
"     %INZEEEEEAO+cm..AE*        ",
"      # OAEYAEP#OHENVEYO        ",
"         KE& bD- xEEEEEVpA-     ",
"        .8i  @-suEEEEEEEEEw.    ",
"              iEEEEIkBEEEw      ",
"       -mZ. O -fYEEt OYEE8      ",
"       <EE0<Gr .DEEh *YEEJj.    ",
"     *&4EEEEEGO<KEEEZPEEEES     ",
"     NEEEYYEE<@YEEEEEEEEf->     ",
"    .PEEI%:EE9 ui7JEEEEY#       ",
"     @sEK#*EEEV   jENyVEu       ",
"      6EEYYEEEv   zE< -l$       ",
"     $PEEEEY::*    $            ",
"      lG2aEE#                   ",
"       @ @PN&                   ",
"                                ",
"                                ",
"                                ",
"                                "
};
