/* XPM */
static char *folder_32x32[] = {
/* columns rows colors chars-per-pixel */
"32 32 79 1 ",
"  c #353534343232",
". c #373736363434",
"X c #3A3A39393535",
"o c #393938383636",
"O c #3B3B3B3B3737",
"+ c #3C3C3B3B3737",
"@ c #3B3B3B3B3939",
"# c #3D3D3C3C3838",
"$ c #3F3F3E3E3C3C",
"% c #414140403E3E",
"& c #414141414040",
"* c #444443434242",
"= c #454544444141",
"- c #464646464545",
"; c #494948484646",
": c #4C4C4C4C4949",
"> c #4C4C4C4C4C4C",
", c #515150504E4E",
"< c #515151514F4F",
"1 c #525252525151",
"2 c #545453535151",
"3 c #565656565555",
"4 c #585858585757",
"5 c #5A5A5A5A5A5A",
"6 c gray37",
"7 c #60605F5F5D5D",
"8 c #606060605F5F",
"9 c #646464646363",
"0 c #666665656363",
"q c #676767676767",
"w c #686867676767",
"e c #6A6A69696868",
"r c #6D6D6D6D6D6D",
"t c #6F6F6F6F6E6E",
"y c #6F6F6F6F6F6F",
"u c #737372727171",
"i c #747474747474",
"p c #787878787777",
"a c #797978787777",
"s c #797979797878",
"d c #7B7B7B7B7B7B",
"f c #7C7C7C7C7B7B",
"g c #7E7E7E7E7E7E",
"h c #808080808080",
"j c #818181818080",
"k c gray51",
"l c #878787878585",
"z c gray53",
"x c #888888888787",
"c c #888888888888",
"v c #8B8B8B8B8B8B",
"b c #8E8E8E8E8E8E",
"n c #929291919090",
"m c #939393939393",
"M c gray58",
"N c #959595959595",
"B c #989898989898",
"V c gray60",
"C c #9C9C9B9B9B9B",
"Z c #9E9E9E9E9D9D",
"A c #A5A5A5A5A4A4",
"S c #AAAAAAAAAAAA",
"D c #B4B4B4B4B4B4",
"F c #BBBBBBBBBBBB",
"G c gray76",
"H c #CACACACACACA",
"J c #CECECECECECE",
"K c #D5D5D5D5D5D5",
"L c gainsboro",
"P c #E2E2E1E1E1E1",
"I c #E6E6E6E6E6E6",
"U c gray92",
"Y c gray93",
"T c #EEEEEEEEEEEE",
"R c gray95",
"E c #F4F4F4F4F4F4",
"W c #F6F6F6F6F6F6",
"Q c #FDFDFDFDFDFD",
"! c gray100",
/* pixels */
"++++++++#+++++++++++++++++++++++",
"++++++X.X+++++++++++++++++++++++",
"++++++=UZeXX++++++++++++++++++++",
"++ X++0!!!Pz,X++++++++++++++++++",
"+Xq5&.f!!!!!!Gj:X+##++++++++++++",
"+XtVVz>F!!!!!!!WZw#+++++++++++++",
"++wVVVVqK!!!!!!!!!Lv2XX#++++++++",
"++8VVVVV6zR!!!!!!!!!!Du%++++++++",
"++5VVVVVVMq6S!!!!!!!!!!EA7X+++++",
"++3VVVVVVVVVg5uI!!!!!!!!!!Hz;+++",
"++3VVVVVVVVVVVm96A!!!!!!!!!!Tx##",
"+X5VVVVVVVVVVVVVVz59J!!!!!!!!P +",
"++6VVVVVVVVVVVVVVVVMt,jR!!!!!A++",
"++0VVVVVVVVVVVVVVVVVVVv3qT!!!x++",
"++qVVVVVVVVVVVVVVVVVVVVVnA!!!w++",
"++eVVVVVVVVVVVVVVVVVVVVVBz!!!=++",
"@XiVVVVVVVVVVVVVVVVVVVVVVs!!H.X@",
"@XhBVVVVVVVVVVVVVVVVVVVVVe!!nX++",
"+XvVVVVVVVVVVVVVVVVVVVVVVe!!t+++",
"@XnVVVVVVVVVVVVVVVVVVVVVVe!!2+++",
"X.VVVVVVVVVVVVVVVVVVVVVVB6!L$+++",
"#X*uVVVVVVVVVVVVVVVVVVVVB0!Z++++",
"++@ X1vVVMVVVVVVVVVVVVVVVq!a++++",
"++++XX@-qMVVVVVVVVVVVVVVBq!2++++",
"++++++++X@,sVVVVVVVVVVVVV0L#++++",
"++++++++##@X=6nVVVVVVVVVMtC+++++",
"++++++++#X#X#+@>tBVVVVVVVss+++++",
"++++++++#X###@X+X$3zVVVVMb>+++++",
"++++++++#X###XX#@X#X;qMVkj#+++++",
"++++++++#X#X####X#X#+XX155#+++++",
"++++++++##X#X##X#X##++++#@++++++",
"++++++++X###X##X###X++++#X++++++"
};
