/* XPM */
static char *system_log_out_32x32[] = {
/* columns rows colors chars-per-pixel */
"32 32 53 1 ",
"  c #3C3C3B3B3737",
". c #3E3E3D3D3939",
"X c #414140403C3C",
"o c #474747474343",
"O c #484847474444",
"+ c #4B4B4A4A4747",
"@ c #4E4E4D4D4949",
"# c #515150504C4C",
"$ c #5F5F5E5E5B5B",
"% c #60605F5F5C5C",
"& c #656564646161",
"* c #676766666363",
"= c #686868686464",
"- c #6E6E6D6D6A6A",
"; c #6F6F6E6E6C6C",
": c #737372726F6F",
"> c #757574747171",
", c #7B7B7B7B7878",
"< c #7D7D7C7C7A7A",
"1 c #818180807E7E",
"2 c #828281817E7E",
"3 c #848483838181",
"4 c #858584848282",
"5 c #898989898686",
"6 c #999998989696",
"7 c #9D9D9D9D9B9B",
"8 c #9F9F9E9E9C9C",
"9 c #A2A2A1A19F9F",
"0 c #A3A3A3A3A1A1",
"q c #ACACACACAAAA",
"w c #B0B0B0B0AEAE",
"e c #B3B3B2B2B1B1",
"r c #B8B8B8B8B6B6",
"t c #BABABABAB8B8",
"y c #C0C0C0C0BFBF",
"u c #C2C2C2C2C0C0",
"i c #CDCDCCCCCBCB",
"p c #CECECECECDCD",
"a c #D4D4D4D4D3D3",
"s c #D5D5D5D5D4D4",
"d c #D6D6D5D5D5D5",
"f c #D8D8D8D8D7D7",
"g c #DFDFDFDFDEDE",
"h c #E0E0DFDFDFDF",
"j c #E1E1E1E1E0E0",
"k c #E5E5E5E5E4E4",
"l c #E7E7E7E7E7E7",
"z c #ECECECECEBEB",
"x c #F3F3F3F3F2F2",
"c c #F4F4F3F3F3F3",
"v c #F4F4F4F4F4F4",
"b c #FBFBFBFBFBFB",
"n c gray100",
/* pixels */
"                                ",
"                                ",
"                                ",
"                                ",
"                                ",
"             .&jj&              ",
"              unny              ",
"              pnnp              ",
"              pnnp              ",
"              pnnp              ",
"         1r%  pnnp  %r1         ",
"        ,nnd  pnnp  ann,        ",
"       +vnnt  pnnp  tnnv@       ",
"       0nngo  pnnp  Ojnnq       ",
"      .znn-   pnnp   -nncX      ",
"      &nnh    inni   .jnn;      ",
"      4nnw    7nn7    enn5      ",
"      6nn0    .44.    0nn6      ",
"      5nnw            enn5      ",
"      :nng            jnn-      ",
"      Xvnn;          :nnxX      ",
"       qnnjO       .+knnq       ",
"      .@vnnd@. .   #annv@       ",
"       .<nnnv0&Xo&9vnnn,        ",
"         5bnnnnnnnnnnb5         ",
"          =fnnnnnnnnd&          ",
"            >rlbblr>.           ",
"            .                   ",
"                                ",
"                                ",
"                                ",
"                                "
};
