/* XPM */
static char *xterm_32x32[] = {
/* columns rows colors chars-per-pixel */
"32 32 93 2 ",
"   c #2C2C2B2B2828",
".  c #2C2C2C2C2828",
"X  c #30302F2F2C2C",
"o  c #333332322F2F",
"O  c #343433333030",
"+  c #353534343030",
"@  c #363636363333",
"#  c #373736363434",
"$  c #3B3B3A3A3636",
"%  c #3C3C3B3B3737",
"&  c #3C3C3B3B3838",
"*  c #424242423F3F",
"=  c #454544444040",
"-  c #484847474343",
";  c #484847474444",
":  c #4B4B4A4A4646",
">  c #4E4E4D4D4A4A",
",  c #505050504D4D",
"<  c #515151514D4D",
"1  c #555554545050",
"2  c #545454545252",
"3  c #565655555252",
"4  c #575757575555",
"5  c #585857575353",
"6  c #585858585555",
"7  c #5B5B5A5A5757",
"8  c #5B5B5A5A5858",
"9  c #5E5E5E5E5A5A",
"0  c #606060605D5D",
"q  c #616161615D5D",
"w  c #636363635F5F",
"e  c #636363636060",
"r  c #656564646060",
"t  c #686867676464",
"y  c #696968686565",
"u  c #6B6B6A6A6767",
"i  c #6B6B6B6B6868",
"p  c #6E6E6E6E6A6A",
"a  c #6E6E6E6E6B6B",
"s  c #717171716D6D",
"d  c #707070706E6E",
"f  c #737372726F6F",
"g  c #737373737070",
"h  c #747473737070",
"j  c #747474747070",
"k  c #767675757171",
"l  c #767676767373",
"z  c #777777777373",
"x  c #777777777575",
"c  c #787877777474",
"v  c #787878787474",
"b  c #7B7B7A7A7777",
"n  c #7C7C7B7B7878",
"m  c #7E7E7E7E7A7A",
"M  c #80807F7F7C7C",
"N  c #818181817E7E",
"B  c #818181817F7F",
"V  c #838383838080",
"C  c #848484848080",
"Z  c #878787878585",
"A  c #888887878484",
"S  c #8B8B8B8B8787",
"D  c #8C8C8C8C8989",
"F  c #8E8E8D8D8A8A",
"G  c #8E8E8E8E8A8A",
"H  c #8E8E8E8E8B8B",
"J  c #919191918E8E",
"K  c #949494949191",
"L  c #999999999696",
"P  c #9A9A9A9A9797",
"I  c #9B9B9B9B9999",
"U  c #9C9C9B9B9999",
"Y  c #9D9D9C9C9B9B",
"T  c #A1A1A1A19E9E",
"R  c #A9A9A9A9A7A7",
"E  c #C1C1C1C1BFBF",
"W  c #C8C8C8C8C6C6",
"Q  c #CBCBCBCBC9C9",
"!  c #D7D7D7D7D5D5",
"~  c #D9D9D9D9D8D8",
"^  c #DADADADAD9D9",
"/  c #DDDDDCDCDBDB",
"(  c #DEDEDDDDDDDD",
")  c #DFDFDFDFDEDE",
"_  c gray88",
"`  c #E3E3E3E3E2E2",
"'  c #E4E4E4E4E3E3",
"]  c #E5E5E5E5E4E4",
"[  c gray91",
"{  c #EAEAEAEAE9E9",
"}  c #EEEEEEEEEDED",
"|  c #EFEFEFEFEEEE",
" . c #FEFEFEFEFEFE",
/* pixels */
"% % % % % % % % % % % % % % % % % % % % % % % % % % % % % % % % ",
"% % % % % o X X X O X X X X X + X X X X o o X X X X O % % % % % ",
"% % % @ 4 v B C N N B B N N B N B N B N N N B B B N b 5 + % % % ",
"% % @ B K K K K K K P K K K K K L K K K K K K K K K K K V + % % ",
"$ $ 4 H J J J J J J J J J J J J K J J J J J K J J H J J J 3 % % ",
"% O h H H H H H H H S G S J S H G G G G G G G G H H H H G h @ % ",
"% o k H S S S S H S S S S H S H S G G S S S S S D S S S S c o % ",
"% o k S B H ( ( ^ S A A A A A A S N N G A A A A B S A A A d o % ",
"% o d C N N P |  .' H N N B N A N A N N A B B B C C B N N d O % ",
"% o a B N B B P |  .` S B B N N N N N N B B B B B C B B C s O % ",
"% o i m m m m N P |  .` B B m B N N b N N b M M M M m m m u O % ",
"% O u v b b b b z U |  ./ B b v b z b b b m b z b b b b z u o % ",
"% o r v c c z z z z U |  ./ m k z z z z z z z z v z v z z r O % ",
"% o e k l h z d k z z T |  .^ z j j k z h h j z z d z k k e O & ",
"% o 0 d d d d d d d d N {  .' z s s a h s s d d a d d d a 0 o % ",
"% o 9 a a a a a a a B {  ._ k a p p p s p p s s a a a a a 9 o % ",
"% O 7 u u u u u u M [  .) f u u y u u u u u u u u u u u u 7 O % ",
"% O 7 u t t t t b `  .' k t t r t t t t t u t t t t t y t 6 O % ",
"% O 3 r r r e z '  .` f r r r r r r w w w w w w w w w w w 5 O % ",
"$ O < w 9 w a `  .` f q q r q r q q q q 9 w w w w w w 9 w < O % ",
"% X > 9 w w ! ` ) c 9 9 9 9 9 9 9 9 9 9 9 9 9 9 9 9 9 9 9 > @ % ",
"% O > 7 7 7 7 7 7 7 7 7 7 7 7 7 7 7 7 7 7 7 7 7 7 7 7 9 7 > O % ",
"% O : 5 5 5 5 4 4 1 5 4 5 5 5 5 5 5 G T T T T T T Y 5 3 5 : X % ",
"% + ; < 1 1 1 1 1 1 1 1 < 1 5 1 1 1 Q  . . . . . .| 1 1 < - O % ",
"% O * < < < < < < < < < < < < < < < R W W W W W W E , , , * O % ",
"% O * > > > > > > > > > > > > > > > > > > > > < > , > > , * O % ",
"% O % : : : : : : : : > : : : : : : : : : : : : : : : : : % O % ",
"% % X - - - - - - - : : - - - - - - - - - - - : - - - - - X % % ",
"% %   % * = = = * * * * * * * * * * * * * * * * * - * * %   % % ",
"% % %     + + + + + + + # + + + + + # # + + $ + O O O     % % % ",
"% % % % % O + O + + + + # + + + + + + + O O O O + O O % % % % % ",
"% % % % % & & & % % % % % % % % % % % % % % % % % % % % % % % % "
};
