/* XPM */
static char *collapse[] = {
/* columns rows colors chars-per-pixel */
"16 24 21 1 ",
"  c #3C3C3B3B3737",
". c #3E3E3D3D3838",
"X c #414140403B3B",
"o c #444443433D3D",
"O c #31317A7A6E6E",
"+ c #32327B7B6F6F",
"@ c #33337D7D7070",
"# c #35357E7E7171",
"$ c #474746464040",
"% c #4B4B49494242",
"& c #4E4E4C4C4545",
"* c #51514F4F4747",
"= c #545452524B4B",
"- c #575755554E4E",
"; c #5A5A59595151",
": c #5D5D5C5C5454",
"> c #60605F5F5858",
", c #363680807373",
"< c #3B3B80807272",
"1 c #383881817474",
"2 c #2525BABAA5A5",
/* pixels */
">>>>>>>>>>>>>>>>",
"::::::::::::::::",
";;;;;;;;;;;;;;;;",
"----------------",
"================",
"****************",
"&&&&&&<&&&&&&&&&",
"%%%%%%21%%%%%%%%",
"$$$$%o22,$$$$$$$",
"oooooX222#oooooo",
"XXXXXX2222@XXXXX",
"......22222+....",
"      22222@    ",
"      2222+     ",
"      222+      ",
"      22+       ",
"      2+        ",
"      +         ",
"                ",
"                ",
"                ",
"                ",
"                ",
"                "
};
