/* XPM */
static char *desktop[] = {
/* columns rows colors chars-per-pixel */
"24 24 17 1 ",
"  c #3C3C3B3B3737",
". c #3E3E3D3D3838",
"X c #414140403B3B",
"o c #444443433D3D",
"O c #474746464040",
"+ c #4B4B49494242",
"@ c #4E4E4C4C4545",
"# c #51514F4F4747",
"$ c #545452524B4B",
"% c #575755554E4E",
"& c #5A5A59595151",
"* c #5D5D5C5C5454",
"= c #60605F5F5858",
"- c #828281817F7F",
"; c #E9E9E8E8E8E8",
": c gray94",
"> c gray100",
/* pixels */
"========================",
"************************",
"&&&&&&&&&&&&&&&&&&&&&&&&",
"%%%%%%%%%%%%%%%%%%%%%%%%",
"$$$$$$$$$$$$$$$$$$$$$$$$",
"########################",
"@@@@@@@@@@@@@@@@@@@@@@@@",
"++++++++++++++++++++++++",
"OOOOOOOOOOOOOOOOoOOOOOoO",
"oooooooooooooooooooooooo",
"XXXXXXXXXXXXXXXXXXXXoXXX",
"........................",
"                        ",
"                        ",
"                        ",
"                        ",
"     --------------     ",
"     :>>>>>>>>>>>>:     ",
"     ;::::::::::::;     ",
"                        ",
"                        ",
"                        ",
"                        ",
"                        "
};
