/* XPM */
static char *linux[] = {
/* columns rows colors chars-per-pixel */
"32 24 79 1 ",
"  c #2525BABAA5A5",
". c #2828BBBBA6A6",
"X c #2A2ABCBCA7A7",
"o c #2B2BBCBCA7A7",
"O c #2C2CBCBCA8A8",
"+ c #2F2FBDBDA9A9",
"@ c #3131BEBEAAAA",
"# c #3434BFBFABAB",
"$ c #3535BFBFACAC",
"% c #3636BFBFACAC",
"& c #3737C0C0ACAC",
"* c #3A3AC0C0ADAD",
"= c #3D3DC2C2AFAF",
"- c #3F3FC2C2B0B0",
"; c #4343C3C3B1B1",
": c #4747C5C5B3B3",
"> c #4B4BC6C6B5B5",
", c #4E4EC7C7B6B6",
"< c #5050C8C8B7B7",
"1 c #5353C9C9B8B8",
"2 c #5858CACABABA",
"3 c #5D5DCCCCBCBC",
"4 c #5F5FCCCCBDBD",
"5 c #6060CDCDBDBD",
"6 c #6363CECEBFBF",
"7 c #6565CECEBFBF",
"8 c #6666CFCFC0C0",
"9 c #6868CFCFC1C1",
"0 c #6B6BD0D0C2C2",
"q c #6E6ED1D1C3C3",
"w c #7171D2D2C4C4",
"e c #7575D3D3C6C6",
"r c #7676D4D4C7C7",
"t c #7A7AD5D5C8C8",
"y c #7B7BD5D5C9C9",
"u c #7F7FD6D6CACA",
"i c #8080D7D7CACA",
"p c #8383D8D8CCCC",
"a c #8585D8D8CDCD",
"s c #8686D9D9CDCD",
"d c #8888D9D9CECE",
"f c #8C8CDADACFCF",
"g c #8D8DDBDBD0D0",
"h c #9090DCDCD1D1",
"j c #9494DDDDD3D3",
"k c #9A9ADFDFD5D5",
"l c #A0A0E1E1D8D8",
"z c #A2A2E2E2D9D9",
"x c #A5A5E3E3DADA",
"c c #AAAAE4E4DCDC",
"v c #AEAEE5E5DDDD",
"b c #B1B1E6E6DFDF",
"n c #B5B5E7E7E0E0",
"m c #B6B6E8E8E1E1",
"M c #BABAE9E9E2E2",
"N c #BCBCEAEAE3E3",
"B c #BDBDEAEAE4E4",
"V c #C0C0EBEBE5E5",
"C c #C2C2ECECE6E6",
"Z c #C3C3ECECE6E6",
"A c #C7C7EDEDE8E8",
"S c #C8C8EEEEE8E8",
"D c #CCCCEFEFEAEA",
"F c #D0D0F0F0ECEC",
"G c #D2D2F1F1ECEC",
"H c #D7D7F2F2EEEE",
"J c #D9D9F3F3EFEF",
"K c #DBDBF4F4F0F0",
"L c #DCDCF4F4F1F1",
"P c #DFDFF5F5F2F2",
"I c #E0E0F5F5F2F2",
"U c #E3E3F6F6F3F3",
"Y c #EAEAF9F9F7F7",
"T c #EEEEFAFAF8F8",
"R c #F1F1FBFBF9F9",
"E c #F5F5FCFCFBFB",
"W c #F6F6FCFCFBFB",
"Q c #FAFAFDFDFDFD",
"! c gray100",
/* pixels */
"                                ",
"                                ",
"    *x                          ",
"    ,D+                         ",
"                                ",
"    0;   eu   1h=               ",
"  -c!* &leRX d7Gi               ",
"  @>I  m4 @ 6v+D&               ",
"   yv *T    Mhx=                ",
"   vy qG    RfX +               ",
"   IwsjP @y;!2 e7               ",
"  @!v$7!SsO JYB2                ",
"   *   =X   +=                  ",
"                      =@  @&    ",
"        PH  i!2 $!b BE!!mD!!AX  ",
"        GK  P!3 f!2=!C7S!MwB!q  ",
"        SU 8Q!7XYD q!e y!q 8!y  ",
"        nT LxQws!4 z!= j!< s!4  ",
"        kQiW-RhTB  JI  DR. BQ+  ",
"        y!Wd LWW; #!v +QV  TF   ",
"        4!HX V!e  7!t 2!d ;!k   ",
"        +4*  ,2   =6# #4* &4=   ",
"                                ",
"                                "
};
