/* XPM */
static char *windows[] = {
/* columns rows colors chars-per-pixel */
"24 24 19 1 ",
"  c #000066668080",
". c #51509C9BB0AF",
"X c #54549E9DB1B1",
"o c #56559F9EB2B1",
"O c #6A69ACABBCBC",
"+ c #8281BABACAC9",
"@ c #8383BBBACAC9",
"# c #8786BEBECCCB",
"$ c #8989C2C2D2D2",
"% c #9190C8C8D6D5",
"& c #9493CBCBD9D9",
"* c #9C9BCDCDDBDA",
"= c #9C9CCFCFDDDD",
"- c #9C9CD0D0DDDD",
"; c #A2A2D0CFDDDC",
": c #A1A1D1D0DEDD",
"> c #C7C7EDEDF7F7",
", c #D5D5F6F6FFFF",
"< c gray100",
/* pixels */
"<<<<<<<<<<<<<<<<<<<<<<<<",
"<<<<<<<<<<<<<<<<<<<<<<<<",
"<<<<<<<<<<<<<<<<<<<<<<<<",
"<<<<<<<<<<<<<<<<<<<<<<<<",
"<<<<O..........O<<<<<<<<",
"<<<<X          X<<<<<<<<",
"<<<<*>>>>>>>>>>*<<<<<<<<",
"<<<<:,,,,,,,,,,:<<<<<<<<",
"<<<<:,,,,,,,,,,:<<<<<<<<",
"<<<<:,,,,,,,,,,%oXXO<<<<",
"<<<<:,,,,,,,,,,$   .<<<<",
"<<<<:,,,,,,,,,,->>>*<<<<",
"<<<<:,,,,,,,,,,-,,,:<<<<",
"<<<<:,,,,,,,,,,-,,,:<<<<",
"<<<<#;::&====-=@,,,:<<<<",
"<<<<<<<<:,,,,,,,,,,:<<<<",
"<<<<<<<<:,,,,,,,,,,:<<<<",
"<<<<<<<<:,,,,,,,,,,:<<<<",
"<<<<<<<<=,,,,,,,,,,:<<<<",
"<<<<<<<<@;;;:;;;;;=@<<<<",
"<<<<<<<<<<<<<<<<<<<<<<<<",
"<<<<<<<<<<<<<<<<<<<<<<<<",
"<<<<<<<<<<<<<<<<<<<<<<<<",
"<<<<<<<<<<<<<<<<<<<<<<<<"
};
