/* XPM */
static char *closeI[] = {
/* columns rows colors chars-per-pixel */
"20 58 116 2 ",
"   c #090909",
".  c #0B0B0A",
"X  c #1B1B19",
"o  c #1B1B1A",
"O  c #1C1C1A",
"+  c #1F1E1C",
"@  c #201F1D",
"#  c #20201E",
"$  c #232320",
"%  c #242421",
"&  c #262624",
"*  c #282826",
"=  c #292826",
"-  c #2A2927",
";  c #3C3A37",
":  c #3C3B37",
">  c #3C3C37",
",  c #3D3C39",
"<  c #3F3D38",
"1  c #3E3C39",
"2  c #3F3E3A",
"3  c #413F3A",
"4  c #403E3B",
"5  c #403F3B",
"6  c #40403A",
"7  c #40403B",
"8  c #41403B",
"9  c #41403C",
"0  c #44433E",
"q  c #45443D",
"w  c #45453F",
"e  c #47443F",
"r  c #47453F",
"t  c #464440",
"y  c #484742",
"u  c #484743",
"i  c #4B4841",
"p  c #4B4A42",
"a  c #4C4A43",
"s  c #4B4B45",
"d  c #4C4B46",
"f  c #4C4B47",
"g  c #4F4D45",
"h  c #4C4C47",
"j  c #4F4F49",
"k  c #514F47",
"l  c #525048",
"z  c #51514B",
"x  c #54524A",
"c  c #53524D",
"v  c #54534F",
"b  c #56554D",
"n  c #575752",
"m  c #595750",
"M  c #595951",
"N  c #595853",
"B  c #5B5A53",
"V  c #5B5A55",
"C  c #5B5B55",
"Z  c #5D5B55",
"A  c #5D5B57",
"S  c #5E5C55",
"D  c #5E5D55",
"F  c #5F5F5A",
"G  c #605F58",
"H  c #605F5A",
"J  c #606059",
"K  c #626159",
"L  c #62625C",
"P  c #63635C",
"I  c #64635C",
"U  c #65645D",
"Y  c #66665D",
"T  c #67675D",
"R  c #65655F",
"E  c #666660",
"W  c #676660",
"Q  c #676761",
"!  c #686760",
"~  c #686860",
"^  c #6A6961",
"/  c #686863",
"(  c #6A6963",
")  c #6C6B63",
"_  c #6C6C62",
"`  c #6C6B65",
"'  c #6C6C65",
"]  c #6F6E68",
"[  c #706F68",
"{  c #706F69",
"}  c #717069",
"|  c #72716B",
" . c #73726C",
".. c #74746D",
"X. c #75746D",
"o. c #77766F",
"O. c #777670",
"+. c #787770",
"@. c #797872",
"#. c #797973",
"$. c #7A7974",
"%. c #7C7B74",
"&. c #7D7C75",
"*. c #7E7D77",
"=. c #7F7F78",
"-. c #807F78",
";. c #807F79",
":. c #83827B",
">. c #83837C",
",. c #84837C",
"<. c #85857E",
"1. c #878780",
"2. c #8A8A83",
"3. c #8A8A84",
"4. c #8D8D86",
"5. c #8E8E87",
/* pixels */
"G G G G G G G G D G G K G G G G G G G G ",
"S S S S S S S S D D S S S S Z Z Z D D D ",
"B B B B B B B B Z m Z Z S B B Z m B m D ",
"m m m m m m m m m m b m b B b B m b Z b ",
"b b b b b b b b b b b b b b b b b b b b ",
"x x x x x x x x x l x x x x x x x b x x ",
"l l l l l k p w 6 3 < 3 w a k k l l l l ",
"g g g g p 3 w B W _ ~ R Z w 3 a g g g g ",
"p a a w 3 Z ^ _ _ _ ^ ) _ _ S 4 r g a g ",
"y y w 3 U ^ _ ^ ^ _ ) ^ ^ ^ ^ W 6 r r r ",
"w w 3 K ^ ^ ^ ^ ^ ^ ^ ^ ^ ^ ^ ~ K 3 q w ",
"q 3 k W ^ W ^ W E ! ! ^ W ~ W W R k 6 q ",
"3 , K ~ W ~ l # E R E I @ j W ~ R G 3 6 ",
", q R W W R W # o K K X % E R W R R 6 3 ",
"; s R R R U W U % o o % I R R R R R s 3 ",
"; j R R U R Y U K     K R R R R I R j ; ",
", s I E E I I G o $ $ O P I P E I I a ; ",
", t I I I I P o $ P P @ X G P E R U 6 ; ",
": , F P I I f + G I P K o j E F P F 3 ; ",
": , j P P P P P P I P P P I P P P s , < ",
": : , m P P P P P P H I K P P P C , : : ",
": : , , A P P H P P P P P P F F , ; : : ",
"; > ; ; , v P H P G H H P P b , , > : : ",
"> ; > ; , , q c C F F C l 3 , : < : : : ",
"; > ; > ; > ; , , , , ; , < : : : : : : ",
"> ; > ; > ; > , : : < : > : : : : : : : ",
"; > ; > : : : : : : : : : : : : : : : : ",
"> ; > ; : : : : : : : : : : : : : : : : ",
"> > < , : : : : > : > > : > > > : > ; > ",
"F J S S F F K S G G S K G G G G S K K S ",
"S S S S S S S S D Z D Z S S S G S Z S S ",
"B B B B B B B C B D m D M B m Z B B C C ",
"b B b B m m m m m m B b m m m m Z b m m ",
"b b b b b b b b b b b b b b b b x b b b ",
"x x x x x x x c x b x b x x x x x x x x ",
"l l l k l l s t 4 4 9 4 q a k x k x j k ",
"k s k g r q s N P P P P Z s 4 a s k a k ",
"a a a w e G E ! E E E E R I F t w p a a ",
"a y e y W ! ! ^ E E ! / E ! E ! u w p p ",
"w q q W ^ ^ ! ( ( ( ( ( ( ( ( E Q 6 w t ",
"t 9 S ' ' ' ) ) ( ' ( ' ' ( ` ` ( S 9 t ",
"6 9 ) ' ' ' b # ( ' ' ( & v ` { ) { 9 9 ",
"6 l ) |  .| ^ - # ( ' + - ' { { ) | j , ",
", C o.|  .o.o.[ - @ # -  . . . .[ | Z ; ",
"4 P o. .o.o. . .{ .   { ........o. .F , ",
", Z O.O.o.o.o.o.# - - @  .O.O.O.o.o.F ; ",
"; c #.@.#.#.o.@ - @.o.& @ o.@.@.#.#.j : ",
"; w &.%.%.%.G % #.%.%.#.% F %.$.&.$., : ",
"< , E =.:.;.;.;.=.=.;.;.%.:.=.=.&.E 3 : ",
"< , t =.:.>.>.>.>.>.:.>.>.>.>.>.%.t < ; ",
": : : s <.1.1.1.1.1.1.1.1.,.1.>.s , , ; ",
": : : , y ;.3.3.3.3.3.2.2.2.&.u , , , ; ",
": : : : , 9 n $.5.5.5.5.$.n , < : : : : ",
": : : : ; ; , , , , , 6 9 ; , : : : : : ",
": : : : : : < < : : : : < > : : : : : : ",
": : : : : : : : : : : : > > : : : : : : ",
": : : : : : : : : : : : : : : : : : : : ",
": : : : : : : : : : : : : : : : : : : : "
};
