/* XPM */
static char *closeA[] = {
/* columns rows colors chars-per-pixel */
"20 58 147 2 ",
"   c #070D14",
".  c #122436",
"X  c #122437",
"o  c #122537",
"O  c #132539",
"+  c #132639",
"@  c #14283C",
"#  c #14283D",
"$  c #3C3A37",
"%  c #3C3C37",
"&  c #3C3B39",
"*  c #3C3D3B",
"=  c #3D3D3C",
"-  c #3C3D3D",
";  c #3E3F3D",
":  c #403F3B",
">  c #3F413D",
",  c #3D403F",
"<  c #40413F",
"1  c #44433D",
"2  c #45453E",
"3  c #47453F",
"4  c #162B40",
"5  c #172C42",
"6  c #172D44",
"7  c #172E46",
"8  c #183048",
"9  c #183049",
"0  c #19314B",
"q  c #1A334D",
"w  c #3E4040",
"e  c #3E4141",
"r  c #3C4042",
"t  c #3F4244",
"y  c #3D454D",
"u  c #3D484F",
"i  c #3E4750",
"p  c #3E4951",
"a  c #3F4A54",
"s  c #3F566B",
"d  c #3F586F",
"f  c #3F5872",
"g  c #414342",
"h  c #434643",
"j  c #464440",
"k  c #454744",
"l  c #4A4841",
"z  c #4B4A42",
"x  c #4C4A43",
"c  c #4C4A44",
"v  c #4F4D45",
"b  c #514F47",
"n  c #525048",
"m  c #54524A",
"M  c #56554D",
"N  c #424C54",
"B  c #424D54",
"V  c #434D55",
"C  c #595750",
"Z  c #5B5A53",
"A  c #5E5C55",
"S  c #5E5D55",
"D  c #605F58",
"F  c #405870",
"G  c #405970",
"H  c #405A72",
"J  c #435F7C",
"K  c #43607B",
"L  c #41617F",
"P  c #3D5F81",
"I  c #3E6085",
"U  c #3E6185",
"Y  c #3F6791",
"T  c #3E6792",
"R  c #336598",
"E  c #346498",
"W  c #386EA5",
"Q  c #386EA6",
"!  c #3F71A5",
"~  c #3E72A9",
"^  c #3F74AD",
"/  c #3F75AF",
"(  c #3F79B5",
")  c #4E7497",
"_  c #4F759B",
"`  c #50769C",
"'  c #4073A7",
"]  c #4173A7",
"[  c #507DAA",
"{  c #427DB9",
"}  c #437DBB",
"|  c #437EBC",
" . c #407EBE",
".. c #417EBF",
"X. c #4C81B7",
"o. c #4D83BA",
"O. c #4E85BD",
"+. c #568BBF",
"@. c #4180C1",
"#. c #4280C1",
"$. c #4180C2",
"%. c #4180C3",
"&. c #4282C4",
"*. c #4282C5",
"=. c #4382C5",
"-. c #4383C6",
";. c #4383C7",
":. c #4384C7",
">. c #4383C8",
",. c #4384C8",
"<. c #4384C9",
"1. c #4486CA",
"2. c #4486CB",
"3. c #4486CC",
"4. c #4588CE",
"5. c #4589CF",
"6. c #468ACF",
"7. c #4888C9",
"8. c #4989C9",
"9. c #5088C1",
"0. c #508AC5",
"q. c #528CC7",
"w. c #578DC4",
"e. c #588EC7",
"r. c #5891C9",
"t. c #5994CF",
"y. c #468BD1",
"u. c #478BD3",
"i. c #478CD4",
"p. c #478DD4",
"a. c #488CD3",
"s. c #488DD3",
"d. c #488ED6",
"f. c #488FD7",
"g. c #4990D9",
"h. c #4A91D9",
"j. c #4D92DA",
"k. c #4D93DA",
"l. c #4E93DA",
"z. c #5A95D1",
"x. c #5195DB",
"c. c #5295DB",
"v. c #5597DB",
"b. c #5B99D9",
"n. c #5899DC",
"m. c #5999DC",
"M. c #599ADC",
/* pixels */
"D D D D D D D D D D D D D D A D D D D D ",
"A A A A A A A A A A A A A A A A A A A A ",
"Z Z Z Z Z Z Z Z Z Z Z Z Z Z Z Z Z Z Z Z ",
"C C C C C C C C C C C C Z C C C C C Z Z ",
"M M M M M M M M M M M M M M M M M M M M ",
"m m m n m m m m m m m m m m m m M b b M ",
"n n n n n b z k > > = g k c n n b b b b ",
"v b v v z < B ` e.b.M.e.` B e z v v b v ",
"z z c j e [ M.M.M.M.m.m.v.n.[ r 2 z c z ",
"z l 2 t q.v.v.v.v.v.v.v.v.x.n.0.k 3 3 z ",
"3 2 ; O.x.x.x.x.x.x.x.x.c.c.c.c.o.w 2 2 ",
"1 < J j.l.l.l.l.x.j.j.j.c.j.j.j.j.J > 2 ",
": = 8.g.g.g.Q 4 y.g.g.y.5 Q g.g.g.8.; ; ",
"= N g.s.f.g.p.q O y.y.O 0 a.a.a.s.s.i ; ",
"$ F s.a.a.p.p.y.0 O . 9 y.y.s.u.y.y.f $ ",
"$ L y.y.y.y.y.y.>.    ;.y.y.y.y.y.y.J $ ",
"$ F 2.6.y.<.6.:.@ 7 7 @ ;.5.5.5.3.y.s $ ",
"$ N 3.2.2.7.;.O 7 :.:.@ o %.3.<.8.<.u $ ",
"$ ; | 2.<.;.R @ %.:.:.%.@ R ;.&.;.{ ; $ ",
"& & F $.;.;.:.$.:.%.&.&.%.&.;.%.;.f * $ ",
"$ % = ! $.$.;.$.o.&.%.%.%.o.%.%.! - $ % ",
"$ $ $ e ( ( ( %.( %.%.( %.%.( ( r % % $ ",
"% $ % * * T  . .( ( (  .( ( T - * % $ % ",
"$ % $ $ $ , u U / / / W I y - % $ $ % $ ",
"% $ % $ % $ % * > - * > - & % $ $ % $ % ",
"$ % $ % $ % $ % $ % $ $ $ % $ % % $ % $ ",
"% $ % $ % $ % $ % $ % $ % $ % $ $ % $ % ",
"$ % $ % $ % $ % $ % $ % $ % $ % % $ % $ ",
"% % % ; % ; % $ % % % $ % % % % $ % % % ",
"D D A A A A D A D D D D D D D D A D D D ",
"A A A A A A A A A A A A A A A A A A A A ",
"Z Z Z Z Z Z Z A Z Z Z Z Z Z Z Z Z Z Z Z ",
"C C C C C C C C C C C C C C C C Z C C C ",
"M M M M M M M M M M M M M M M M M M M M ",
"m m n m m m m m m m m m m n m m m m m m ",
"n n n n n n c k e & & e j c b n n n n n ",
"b v v v z e i P ~ ( ( ^ I i ; z v v v v ",
"c z z j ; T | %.( ..( ( ( $.T ; j c z c ",
"z z < g ' ....( %.......%.( | / > 2 z 3 ",
"2 2 : ] ;.%.$.$...%...o.;.$.$.$.! = l j ",
"1 : F -.$.;.>.>.>.&.%.:.%.&.&.&.:.f > > ",
": > | >.;.;.R @ ..>.<...@ R :.:.<.{ * > ",
"; N 3.3.2.7.>.0 O %.;.. 7 :.<.2.<.<.u = ",
"$ f 3.3.y.3.6.<.9 o o 7 5.6.2.5.8.6.s $ ",
"$ L y.y.y.y.y.y.<.    :.6.p.6.6.y.y.K $ ",
"$ d a.a.f.y.y.6.O 8 7 @ 2.y.f.y.f.y.d $ ",
"$ a p.g.a.j.y.O q y.y.6 @ y.y.f.y.f.u $ ",
"$ > 8.g.g.g.Q 6 s.g.g.a.6 W g.f.g.7.= % ",
"$ ; J j.l.l.l.l.j.x.j.j.l.l.g.l.l.L = % ",
"$ $ ; O.x.x.x.x.x.x.x.x.x.x.x.x.X.> $ % ",
"% $ % e q.v.v.v.v.v.x.M.v.v.v.O.e $ % $ ",
"$ % % ; > [ v.M.M.v.M.v.v.M.[ > = $ $ % ",
"$ % $ % = > N ) +.t.z.w._ N e % % $ % $ ",
"% $ % $ % $ & > e ; - e > $ $ $ $ % $ % ",
"$ % $ % $ % $ $ % $ % $ & $ $ % % $ % $ ",
"% $ % $ % $ % $ $ % $ % $ % % $ $ % $ % ",
"$ % $ % $ % $ % $ % $ % $ % $ % % $ % $ ",
"% $ % $ % $ % $ % $ % $ % $ % $ $ % $ % "
};
