/* XPM */
static char *closeO[] = {
/* columns rows colors chars-per-pixel */
"20 58 98 2 ",
"   c #070D14",
".  c #0B1015",
"X  c #122436",
"o  c #13263A",
"O  c #14283D",
"+  c #1F2D3C",
"@  c #202E3C",
"#  c #3C3B37",
"$  c #3D3E3B",
"%  c #3E413E",
"&  c #44433E",
"*  c #172C43",
"=  c #183049",
"-  c #243444",
";  c #27394B",
":  c #293B4E",
">  c #2B3D51",
",  c #3E4141",
"<  c #3D484F",
"1  c #3E4952",
"2  c #3F566D",
"3  c #3F5974",
"4  c #434542",
"5  c #474845",
"6  c #4C4B43",
"7  c #514F47",
"8  c #54534B",
"9  c #444C53",
"0  c #4A5256",
"q  c #4C5258",
"w  c #595750",
"e  c #5D5B54",
"r  c #605F58",
"t  c #405971",
"y  c #425F7C",
"u  c #4E6070",
"i  c #42617D",
"p  c #516475",
"a  c #51687D",
"s  c #3E6185",
"d  c #3F6792",
"f  c #346598",
"g  c #386EA6",
"h  c #3E72A9",
"j  c #3F79B5",
"k  c #566D83",
"l  c #586D80",
"z  c #53718D",
"x  c #4E7497",
"c  c #4F759B",
"v  c #557392",
"b  c #5A7C9F",
"n  c #4173A7",
"m  c #4F7AA6",
"M  c #557CA5",
"N  c #507DAA",
"B  c #417DBD",
"V  c #5E85AE",
"C  c #4C81B7",
"Z  c #4E85BD",
"A  c #5D87B2",
"S  c #5F8AB7",
"D  c #6E88A3",
"F  c #708EAE",
"G  c #628BB4",
"H  c #638EBD",
"J  c #7291B1",
"K  c #4281C4",
"L  c #4485CA",
"P  c #4588CD",
"I  c #4989C9",
"U  c #538BC4",
"Y  c #5994CF",
"T  c #468BD2",
"R  c #488ED6",
"E  c #4C92DA",
"W  c #5396DB",
"Q  c #5999DC",
"!  c #6291C2",
"~  c #6A97C8",
"^  c #6A9ACA",
"/  c #759DC5",
"(  c #679AD0",
")  c #6A9ED3",
"_  c #7BA4CE",
"`  c #6DA0D6",
"'  c #6FA2D8",
"]  c #72A2D4",
"[  c #7DA6D1",
"{  c #72A6DB",
"}  c #75A8DE",
"|  c #78A9DE",
" . c #77AAE0",
".. c #7AADE3",
"X. c #7EB1E5",
"o. c #83AAD2",
"O. c #84B4E6",
"+. c #8AB7E6",
/* pixels */
"r r r r r r r r r r r r r r r r r r r r ",
"e e e e e e e r e e e r r e e e e r r e ",
"e e e e w e e e w e e e e w e e w e e e ",
"w w w w w w w w w w w w w w w w w w w w ",
"8 8 8 8 8 8 8 w 8 8 w 8 8 8 w 8 8 8 8 8 ",
"8 8 8 8 8 8 8 8 8 8 8 8 8 8 8 8 8 8 8 7 ",
"8 8 8 8 7 7 6 5 4 $ $ 4 5 6 8 6 7 7 7 7 ",
"6 6 6 6 6 & 0 D o.+.+.o.D q 4 6 7 7 7 7 ",
"6 6 6 & , J +.+.+.+.+.+.+.+.F 4 & 7 7 7 ",
"6 6 & 4 [ O.O.O.+.O.+.+.O.O.O._ 5 & & & ",
"& & % / O.O.O.O.O.X.X.O.X.O.O.O./ % & & ",
"& 4 l X.X.X.X.X.X.X.X.X.X.X.X.X.O.a & & ",
"& $ ] X.X.X.V -  .X...| - V ......] % & ",
"$ 0  ..... .} > @ { { @ > | ....| ..9 $ ",
"# p |  . . . .| > + + : | } }  .} | u $ ",
"# k | } } } } } ` . . ` } } } } } | a # ",
"# p } { { { { ) @ ; ; @ ] { { { { { u $ ",
"# 9 { { { { ] + ; ' ' - @ ) { { { { 9 # ",
"# $ ^ ' ' ' M - ) ' ' ) - M ' ' ' ~ % # ",
"# $ a ` ` ' ` ` ` ` ` ` ' ) ` ` ` p $ # ",
"# # % A ) ) ) ) ) ) ) ) ) ` ) ) G % # # ",
"# # $ , H ( ) ) ) ) ) ) ( ( ( ! , # # # ",
"# # $ # , b ( ( ( ( ( ( ( ( b % $ # # # ",
"# # # # # % 9 v S ! ! A z 9 $ # # # # # ",
"# # # # # # # % % % % % % # # # # # # # ",
"# # # # # # # # # # # # # # # # # # # # ",
"# # # # # # # # # # # # # # # # # # # # ",
"# # # # # # # # # # # # # # # # # # # # ",
"# # # $ # $ # # # # # # # # # # # # # # ",
"r r r r e r r r r r r r r r r r r r r r ",
"e r e e e e e e e e e e e r e e e e e e ",
"e w w e e e e e e e e w e e e e e e e e ",
"w w w w w w w w w w w w w w w w w w w w ",
"8 8 8 w 8 8 w 8 w 8 8 8 8 w w 8 8 8 w 8 ",
"8 8 8 8 8 8 8 8 8 8 8 8 8 8 8 8 8 8 8 8 ",
"7 7 7 8 8 8 5 4 , $ # % 4 6 6 8 7 7 7 7 ",
"7 7 7 6 6 & 1 s h j j h s 1 , 6 7 7 6 7 ",
"7 & 6 & $ d B j B B j B j j d $ 4 6 6 6 ",
"& 6 & , h B B B K B j B B B B j % & & 6 ",
"& & & n K K K K K K K K K K B B n % & & ",
"4 , 3 K K K K K K K K K K K K K K 3 % & ",
"$ $ j L L L f O K K L B * f K K L j $ % ",
"# 1 P P L L L = X K K X = K P L L L < $ ",
"# 3 P P P P P P = X X = P P P P P I 2 # ",
"# y T T T T T T K     K T T P T T T 3 $ ",
"# t T T R R T L O = = o P T T T T T 3 $ ",
"$ 1 R R R R P O = R T = O T R R R R 1 # ",
"# % P E E E g * T E R T * g E R R I $ # ",
"# $ i E E E E W E E E E E E E E E i $ # ",
"# # $ Z W W W W W W W W W W E E C $ # # ",
"# # # , U W W W W Q W Q W W Q U 4 # # # ",
"# # # $ , N Q Q Q Q Q Q Q Q m , # # # # ",
"# # # # $ % 9 x U Y Y U c 9 % # # # # # ",
"# # # # # # # % , $ $ , , # # # # # # # ",
"# # # # # # # # # # # # # # # # # # # # ",
"# # # # # # # # # # # # # # # # # # # # ",
"# # # # # # # # # # # # # # # # # # # # ",
"# # # # # # # # # # # # # # # # # # # # "
};
