/* XPM */
static char *depthA[] = {
/* columns rows colors chars-per-pixel */
"17 58 51 1 ",
"  c #3C3B37",
". c #3D3C38",
"X c #3F3E39",
"o c #41403B",
"O c #43423D",
"+ c #44433D",
"@ c #47453F",
"# c #464641",
"$ c #4A4841",
"% c #4C4A43",
"& c #4A4A44",
"* c #4F4D45",
"= c #4F4E48",
"- c #504F49",
"; c #505049",
": c #525048",
"> c #51514B",
", c #54524A",
"< c #53534C",
"1 c #54534D",
"2 c #56554D",
"3 c #56564E",
"4 c #57564F",
"5 c #595750",
"6 c #5B5A53",
"7 c #5C5C53",
"8 c #5E5C55",
"9 c #5F5F57",
"0 c #605F58",
"q c #606058",
"w c #626259",
"e c #62615B",
"r c #65645D",
"t c #66665F",
"y c #69695F",
"u c #686860",
"i c #696860",
"p c #6B6B61",
"a c #6B6B63",
"s c #706F66",
"d c #717169",
"f c #78776F",
"g c #7D7D73",
"h c #87877C",
"j c #89897E",
"k c #919186",
"l c #939388",
"z c #98988C",
"x c #99998E",
"c c #9B9B8F",
"v c #9C9C90",
/* pixels */
"000000000000000q0",
"88888888888888888",
"66666666666866666",
"55555555554562626",
"22222222222222212",
",               :",
":               :",
"*               *",
"%               %",
"$   &0eeuuu+    $",
"@   acvvvl1     @",
"+   kvvvh#      +",
"o  OcvvdX       o",
"X  6ccr    X    X",
"   dl: XzvvcfX   ",
"   dO  1vvc8     ",
"   X  Xuck:      ",
"       hgO       ",
"      XrX        ",
"                 ",
"                 ",
"                 ",
"                 ",
"                 ",
"                 ",
"                 ",
"                 ",
"                 ",
"                 ",
"00009999qq000qqq0",
"88888888888888888",
"66666666667666666",
"45555555555555557",
"41222222222222222",
"-               <",
",               :",
"*X              *",
"&               $",
"$   +*=*::-X    $",
"#   1aaaar$     #",
"O  XqpppqO      O",
"X  Xppp2XX      X",
"XX $pa;.        X",
"   2t#.Xuuaa6    ",
"   2XX #yay*     ",
"   .   :pr@      ",
"       97X       ",
"       :         ",
"                 ",
"                 ",
"                 ",
"                 ",
"                 ",
"                 ",
"                 ",
"                 ",
"                 ",
"                 "
};
