/* XPM */
static char *depthO[] = {
/* columns rows colors chars-per-pixel */
"17 58 58 1 ",
"  c #3C3B37",
". c #3E3D38",
"X c #3F3E39",
"o c #3F3E3A",
"O c #403F3A",
"+ c #403F3B",
"@ c #41403B",
"# c #44433D",
"$ c #47453F",
"% c #454440",
"& c #464640",
"* c #474641",
"= c #4A4841",
"- c #4C4A43",
"; c #494944",
": c #4A4A44",
"> c #4F4D45",
", c #4D4C46",
"< c #4D4C47",
"1 c #504F49",
"2 c #525048",
"3 c #52514A",
"4 c #54524A",
"5 c #53534C",
"6 c #55544D",
"7 c #56554D",
"8 c #57564F",
"9 c #575751",
"0 c #595750",
"q c #595853",
"w c #5B5A53",
"e c #5E5C55",
"r c #5F5F57",
"t c #605F58",
"y c #61615B",
"u c #66665C",
"i c #66665D",
"p c #69695F",
"a c #676660",
"s c #6A6A60",
"d c #6B6B61",
"f c #6C6B65",
"g c #6F6E68",
"h c #71716A",
"j c #73736C",
"k c #777770",
"l c #7F7F77",
"z c #807F79",
"x c #8E8E85",
"c c #97978E",
"v c #999991",
"b c #9C9C93",
"n c #A7A79D",
"m c #A8A89F",
"M c #A9A9A0",
"N c #AFAFA5",
"B c #B3B3A9",
"V c #B4B4AA",
/* pixels */
"tttttttttttttttrr",
"eeeeeeeeeweeeeeer",
"wwwwwwwwwwwqwwwwq",
"0000000000w0w07w0",
"77777777777776677",
"4               4",
"2               2",
">               >",
"-               -",
"=   <fffjjj%    *",
"$   lBVVVMq     $",
"#   bVVVv;      $",
"@  $BBVlX       @",
"X  yBBg         O",
"   zm9 XNVVVx    ",
"   l%  0VVNa     ",
"   X   kBn7      ",
"       cx$       ",
"      Xh         ",
"                 ",
"                 ",
"                 ",
"                 ",
"                 ",
"                 ",
"                 ",
"                 ",
"                 ",
"        X        ",
"tttrttttrrerrrrre",
"eeeeeweeeeerreeey",
"wwweqwwwwwwwwwwww",
"w9000000000000000",
"77777777777777777",
"2               7",
"2               >",
">X              >",
"=               :",
"%   O2>1221O    :",
"$@  7dddfa*     $",
"#   yddpy@      #",
"@  Xpdd7        @",
"X  :dp1         X",
"   wi$X pdddwX   ",
"   7@  $pfi>     ",
"       4fi%      ",
"       te        ",
"       > @       ",
"                 ",
"                 ",
"                 ",
"                 ",
"                 ",
"                 ",
"                 ",
"                 ",
"                 ",
"                 "
};
