/* XPM */
static char *depthI[] = {
/* columns rows colors chars-per-pixel */
"17 58 59 1 ",
"  c #3C3B37",
". c #3D3C38",
"X c #3F3E39",
"o c #3F3E3A",
"O c #403F3A",
"+ c #403F3B",
"@ c #41403B",
"# c #41413C",
"$ c #43423D",
"% c #44433D",
"& c #47453F",
"* c #454440",
"= c #464540",
"- c #464640",
"; c #4A4841",
": c #4C4A43",
"> c #494944",
", c #4F4D45",
"< c #4F4E48",
"1 c #504F49",
"2 c #525048",
"3 c #50504A",
"4 c #51514B",
"5 c #54524A",
"6 c #53534C",
"7 c #56554D",
"8 c #55554F",
"9 c #57564F",
"0 c #575751",
"q c #595750",
"w c #595853",
"e c #5B5A53",
"r c #5C5C53",
"t c #5E5C55",
"y c #605F58",
"u c #606058",
"i c #626259",
"p c #61615B",
"a c #66665D",
"s c #696960",
"d c #6B6B61",
"f c #6C6B65",
"g c #6F6E68",
"h c #71716A",
"j c #73736C",
"k c #777770",
"l c #7D7C74",
"z c #7F7F77",
"x c #807F79",
"c c #8E8E85",
"v c #97978E",
"b c #999991",
"n c #9C9C93",
"m c #A7A79D",
"M c #A9A9A0",
"N c #AFAFA5",
"B c #B1B1A7",
"V c #B3B3A9",
"C c #B4B4AA",
/* pixels */
"yyyyyyyyuutiuuiti",
"ttttttttttttttttt",
"eeeeeeeeeeeeeeeee",
"qqqqqqqqqq07e7e09",
"77777777777777777",
"5               2",
"2               2",
",               ,",
":   X  X        :",
";   @1,<124X    ;",
"&   7dddsa*o    *",
"%   iddsu@      &",
"@  Xssd0o       @",
"X X;ds<    X    X",
"   0a& XsdddeX   ",
"   7@X *sss,     ",
"      X6sa*      ",
"       trX       ",
"      X1         ",
"                 ",
"                 ",
"                 ",
"                 ",
"                 ",
"                 ",
"                 ",
"                 ",
"                 ",
"               X ",
"yyyyuuyuuuyyyyyti",
"ttttttttttttttttt",
"eeeeeeeeeereeeeee",
"09e90qqqqqqqqqqq0",
"7777777777777777q",
"2               2",
"2               <",
",X              2",
";      X        :",
";   ,fffjjj*    ;",
"&   lVVVVMe     *",
"*   nCCCb>      %",
"o  *CCCzX       +",
"o  yCVg X  X    o",
"   zM0 oNVVVcX   ",
"   z*  wVVNp     ",
"       kVm0      ",
"       vc@       ",
"      oh X       ",
"                 ",
"                 ",
"                 ",
"                 ",
"                 ",
"                 ",
"                 ",
"                 ",
"                 ",
"                 "
};
