/* XPM */
static char *hideO[] = {
/* columns rows colors chars-per-pixel */
"17 58 29 1 ",
"  c #3C3B37",
". c #3E3D39",
"X c #3F3E39",
"o c #41403B",
"O c #41403C",
"+ c #43433E",
"@ c #44433D",
"# c #47453F",
"$ c #484742",
"% c #4A4841",
"& c #4C4A43",
"* c #4A4945",
"= c #4F4D45",
"- c #4F4F49",
"; c #525048",
": c #54524A",
"> c #53524D",
", c #56554D",
"< c #56564F",
"1 c #595750",
"2 c #5B5A53",
"3 c #5B5A56",
"4 c #5E5C55",
"5 c #605F58",
"6 c #606057",
"7 c #6B6B61",
"8 c #808078",
"9 c #97978E",
"0 c #B4B4AA",
/* pixels */
"55555555455555666",
"44444444444444444",
"22222222223343223",
"1111111111112,111",
",,,,,,,,,,,,,,>,,",
":               ;",
";               ;",
"=               =",
"&           $OX &",
"%  899=   *997X %",
"#  900>   -009  #",
"@  900>   -009  #",
"o  >33O   O33>  o",
"X               X",
"                 ",
"                 ",
"   >33X   o33>   ",
"   900>   -009   ",
"   900>   -009   ",
"   899-   *998   ",
"                 ",
"                 ",
"                 ",
"                 ",
"                 ",
"                 ",
"                 ",
"                 ",
"                 ",
"55556555666666666",
"44444444444444444",
"22222223222233222",
"11113,11111111112",
",,,,,,,,,,,,,,,,,",
";               :",
";               ;",
"=X              =",
"% XX       X    &",
"%  ,46X   o66,  %",
"$  477$   +776  $",
"+  477+   O774  +",
"X  $$$X   X$$$  X",
"X               X",
"                 ",
"                 ",
"   $$$    X$$$   ",
"   677+   +776   ",
"   677$   +774   ",
"   ,66+   o66,   ",
"                 ",
"                 ",
"                 ",
"                 ",
"                 ",
"                 ",
"                 ",
"                 ",
"                 "
};
