/* XPM */
static char *hideA[] = {
/* columns rows colors chars-per-pixel */
"17 58 29 1 ",
"  c #3C3B37",
". c #3F3E39",
"X c #403F3B",
"o c #41403B",
"O c #43433E",
"+ c #44433D",
"@ c #47453F",
"# c #474642",
"$ c #484742",
"% c #4A4841",
"& c #4A4943",
"* c #4C4A43",
"= c #4B4B45",
"- c #4F4D45",
"; c #4F4E48",
": c #525048",
"> c #54524A",
", c #56554D",
"< c #55544F",
"1 c #56564F",
"2 c #595750",
"3 c #5B5A53",
"4 c #5E5C55",
"5 c #605F58",
"6 c #606057",
"7 c #6B6B61",
"8 c #727269",
"9 c #84847A",
"0 c #9C9C90",
/* pixels */
"55555555555555555",
"44444444444444444",
"33333333333333333",
"2222222222223<323",
",,,,,,,,,,,,,,,<,",
">               :",
":               :",
"-               -",
"*               $",
"%  899&   #998  %",
"@  900;   &009  #",
"+  900;  .&009  @",
"o  ;,,.   .<<;  .",
".            .  .",
"                 ",
"                 ",
"   ;<<.   .2,;   ",
"   900;   &009   ",
"   900;   &009   ",
"   899&   #998   ",
"                 ",
"                 ",
"                 ",
"                 ",
"                 ",
"                 ",
"                 ",
"                 ",
"                 ",
"55555555665555566",
"44444553444644444",
"33333333333333333",
"<322,322222222222",
"<,,,,,,,,,,,,,,,,",
":               >",
":               :",
"-.              -",
"$               *",
"$  ,66O   O65,  %",
"$  677@   O774  @",
"O  477O   O776  +",
"X  #$#.   .$##  X",
"X               X",
"                 ",
"                 ",
"   @$#.   .##@   ",
"   677O   O776   ",
"   677@   O776   ",
"   ,66O   X66,   ",
"                 ",
"                 ",
"                 ",
"                 ",
"                 ",
"                 ",
"                 ",
"                 ",
"                 "
};
