/* XPM */
static char *hideI[] = {
/* columns rows colors chars-per-pixel */
"17 58 29 1 ",
"  c #3C3B37",
". c #3E3D39",
"X c #41403B",
"o c #41403C",
"O c #43423D",
"+ c #43433E",
"@ c #47453F",
"# c #484742",
"$ c #4A4841",
"% c #4C4A43",
"& c #4A4945",
"* c #4F4D45",
"= c #4D4C47",
"- c #4F4F49",
"; c #525048",
": c #54524A",
"> c #53524D",
", c #56554D",
"< c #56564F",
"1 c #595750",
"2 c #5B5A53",
"3 c #5B5A56",
"4 c #5E5C55",
"5 c #605F58",
"6 c #606057",
"7 c #6B6B61",
"8 c #808078",
"9 c #97978E",
"0 c #B4B4AA",
/* pixels */
"55555555655665666",
"44444444444435444",
"22222222222222222",
"11111111111111111",
",,,,,,,,,,,,,,,,,",
":               >",
";               ;",
"*               *",
"%               %",
"$  ,66O   O66,  $",
"#  677@   O776  #",
"O  677@   O776  O",
"X  ###     ###  X",
"                 ",
"                 ",
"                 ",
"   ###     $##   ",
"   677O   #776   ",
"   577#   O774   ",
"   <55O   O66,   ",
"                 ",
"                 ",
"                 ",
"                 ",
"                 ",
"                 ",
"                 ",
"                 ",
"                 ",
"55664655666656666",
"44444434444444444",
"22222222223222224",
"11111111111111111",
",,,,,,,,,,,,,,,,,",
">               ;",
";               ;",
"*               *",
"$          .    #",
"$  899*   -997  #",
"#  900>   2009  #",
"#  900-   =009  #",
".  >33.   #33>  .",
".               .",
"                 ",
"                 ",
"   >33#   .33>   ",
"   900>   -009   ",
"   900>   -009   ",
"   799-.  &997   ",
"    #o      o#   ",
"            ..   ",
"            ..   ",
"                 ",
"                 ",
"                 ",
"                 ",
"                 ",
"                 "
};
