/* XPM */
static char *maximizeA[] = {
/* columns rows colors chars-per-pixel */
"19 58 85 1 ",
"  c #3C3B37",
". c #3C3C38",
"X c #3E3D39",
"o c #403F3B",
"O c #413F3B",
"+ c #40403A",
"@ c #40403B",
"# c #42413D",
"$ c #43423C",
"% c #44433D",
"& c #45423E",
"* c #47453F",
"= c #47463F",
"- c #454440",
"; c #464640",
": c #4A4741",
"> c #484743",
", c #4A4841",
"< c #4C4A42",
"1 c #4B4A45",
"2 c #4B4B45",
"3 c #4C4A46",
"4 c #4E4C45",
"5 c #4F4D45",
"6 c #4E4D49",
"7 c #4F4F4A",
"8 c #504E46",
"9 c #525048",
"0 c #51504B",
"q c #54524A",
"w c #52524C",
"e c #56554D",
"r c #555550",
"t c #595750",
"y c #5A5850",
"u c #585852",
"i c #5B5A53",
"p c #5A5954",
"a c #5E5C55",
"s c #5E5D55",
"d c #5C5C56",
"f c #605F58",
"g c #606058",
"h c #60605A",
"j c #62625C",
"k c #63625C",
"l c #64645D",
"z c #64645E",
"x c #67665F",
"c c #666660",
"v c #686761",
"b c #686861",
"n c #696863",
"m c #6A6963",
"M c #6A6A63",
"N c #6B6A64",
"B c #6D6C67",
"V c #6F6E69",
"C c #706F68",
"Z c #706F69",
"A c #70706A",
"S c #73726B",
"D c #72726D",
"F c #74746D",
"G c #75746D",
"H c #77766F",
"J c #777770",
"K c #797871",
"L c #7C7B74",
"P c #7C7C74",
"I c #7D7C75",
"U c #7F7F78",
"Y c #807F78",
"T c #808079",
"R c #818079",
"E c #83837C",
"W c #84837C",
"Q c #84837D",
"! c #84847D",
"~ c #85857E",
"^ c #878781",
"/ c #888781",
"( c #888881",
") c #8B8B85",
"_ c #8C8B85",
/* pixels */
"ffffffffahhfffggfgg",
"aaaaaaaaadagaiaaaaf",
"iiiiiiiiiiiiiiiiiii",
"ttttttttttyyyytttty",
"eeeeeeeeeeeeeeeeeet",
"qqqqqqqqqqqqqqq9qqq",
"999999998q999999999",
"8484844:===,4044488",
"<<<<,;1fADm0#:,13<<",
",,,;;K))_)))(d;:,,<",
"**&4!(///^^^(!V#===",
"&#;R!!QQQQQQ!RQz$&+",
"+#BYYIZVVVVVDYUU:OO",
"X*IIIBX1331:3LIKzOO",
" rKKKm1KKKKm1KKKK+ ",
"XfJJHv1HHHHc:JHHH# ",
" hHHFc:JAHHl,HAHD&X",
" iVADl>VAAAl,AAAV+.",
" ,VVVj;jljhi1BBCzX.",
"X+NNVl1;;,>>9BBB9 .",
".X6mNNNNBmmmNmml#..",
". XicNmccmbbzmx*...",
"  .Xwcclcllczg& . .",
"  ..X#rjjlla1X    .",
"      .O+X+XX.    .",
"       .    ..    .",
"                  .",
"                  .",
"              ..   ",
"ffffahgggggghaggahh",
"aaaaaaadaaaaaaaaaaa",
"iiiiiiiiiiiiiiiiiia",
"ttttitttttitttttitt",
"eeeeeeeeeeeeeeeeeeq",
"qq9qqqq99qqqqq9qqqq",
"9999999999999999999",
"8448484:*;,,8484849",
"<<3,,*:hVDNw&;3<3,,",
",::,*K)_))))!a*:,,,",
":*&4!(((^^^((!B#*;;",
"-#*T!QQQQQQR!!Ql##*",
"X#NRRLVVVVVVARIT:X#",
"X:IIIBX1133:1PIIz#X",
".eKKKm1KKKKN1KKKF#X",
"XfJJHc3HHHJc,JJHH+.",
"XjHDHv,HDDHc1DHZF*.",
".iVDZz,AAAAl:AVAS#.",
" ,VVZl;jlhhi:CCVzX.",
" XmBBh;,:;1;wNBB6. ",
".X6mmBmNNNmmNNNlX.X",
"  XimmmmcNbbcbc#X  ",
"  XX9zczlcccch#X.  ",
"    X#rjljjd1X    .",
"    ..XX+X+XX     .",
"      X     .     .",
"                  .",
"                  .",
"                  ."
};
