/* XPM */
static char *maximizeO[] = {
/* columns rows colors chars-per-pixel */
"19 58 39 1 ",
"  c #3C3B37",
". c #3D3C38",
"X c #403F3B",
"o c #44423D",
"O c #474541",
"+ c #484741",
"@ c #4C4B44",
"# c #4F4E49",
"$ c #504E46",
"% c #504F4A",
"& c #54524B",
"* c #565650",
"= c #595750",
"- c #5C5B54",
"; c #605F58",
": c #64635D",
"> c #666660",
", c #686761",
"< c #6A6A64",
"1 c #6F6E68",
"2 c #706F68",
"3 c #74736C",
"4 c #777770",
"5 c #787772",
"6 c #7B7A73",
"7 c #7F7F78",
"8 c #807F79",
"9 c #84837C",
"0 c #868680",
"q c #888781",
"w c #8C8B84",
"e c #8F8F88",
"r c #908F88",
"t c #93938B",
"y c #989790",
"u c #9B9A94",
"i c #9F9E99",
"p c #A3A29D",
"a c #A6A6A1",
/* pixels */
";;;;;;;;;;;;;;;;;;;",
"-----;--;----;----;",
"---------=-=-------",
"===================",
"&=&&&&=&&=&=&***&&&",
"&&&&&&&&&&&&&&&&&&&",
"&&$&&$&&&&&$$&%$&&$",
"$$@$$$$o@oo@@$#%$$$",
"o@@@@O+1805*OO++@$@",
"@@@o@waaaaaai:O+@o@",
"@oo&iapppppppp8Ooo@",
"ooouiiiiiiiiiii3ooo",
"oo8uut998008quuu$Xo",
"Xoyyy9X&%%%#%yyy4oX",
"X;ttt8$tytt7%tttro ",
"X2ttt8$trtt6%ttrro ",
".3eee6&eeee6&trrr@X",
".<wee4&weww6&9et9oX",
".&www3@4444,$we96o ",
".X9w96&&$$%$;999-  ",
" .=9999w99w99997o  ",
"  X199999999999@   ",
"  .X;999999994o.   ",
"    oo>67773=o.    ",
"      Xooooo      .",
"                  .",
"                  .",
"                   ",
"        .     ..   ",
";;;;;;;;;;;;;;;;;;;",
"-;-----;----------;",
"-----=-------------",
"=-================-",
"&&&&==&=&=&==&=&&&&",
"&&&&&&&=&&&&&&&&&&&",
"&$&&$&$&$$&$&&$$&$&",
"$@&$$$$oooo$$$$$$$$",
"$oo$ooo:33<&oo@@@@@",
"o$$oo6rrr9tr9-oo+++",
"ooo$9r999e99992oOOO",
"oo+790909999999:ooo",
"Xo<7761123222977OXo",
".o6761X@@@@o@666>X.",
".*554<@5666,@6663X.",
".:344,@4443>+4333o.",
".:333>+3333>+3333o.",
" -322:@2223:@2232o ",
" @221:O::::=+111>..",
" .<<1>++OO++%2<1#..",
" .#<<<<<<<<<<<<:X .",
"  .-,>,,>,,<,,>o. .",
"  ..%>>>>>>>>;o.   ",
"    .o*:>::-@.    .",
"    ....X....      ",
"            .     .",
"                   ",
"                  .",
"                  ."
};
