/* XPM */
static char *maximizeI[] = {
/* columns rows colors chars-per-pixel */
"19 58 91 1 ",
"  c #3C3B37",
". c #3C3C37",
"X c #3D3C37",
"o c #3C3C38",
"O c #3D3C39",
"+ c #3F3F39",
"@ c #3F3E3B",
"# c #403E3A",
"$ c #403F3B",
"% c #413F3B",
"& c #41403B",
"* c #42403C",
"= c #43423C",
"- c #45423E",
"; c #44443E",
": c #46453E",
"> c #47463F",
", c #454440",
"< c #464440",
"1 c #474641",
"2 c #4A4741",
"3 c #484743",
"4 c #4A4841",
"5 c #494842",
"6 c #4C4A42",
"7 c #4B4B45",
"8 c #4B4A46",
"9 c #4C4A46",
"0 c #4E4C45",
"q c #4E4D49",
"w c #4F4F4A",
"e c #504E46",
"r c #525048",
"t c #54524A",
"y c #53524D",
"u c #56554D",
"i c #54544F",
"p c #555550",
"a c #595750",
"s c #585751",
"d c #5A5850",
"f c #5B5A53",
"g c #5B5B53",
"h c #5C5A53",
"j c #5B5B54",
"k c #5C5C55",
"l c #5E5C55",
"z c #5C5C56",
"x c #5F5F59",
"c c #605F58",
"v c #615F5A",
"b c #606058",
"n c #63635C",
"m c #63635D",
"M c #64645D",
"N c #64645E",
"B c #66655E",
"V c #68675F",
"C c #666560",
"Z c #686760",
"A c #696960",
"S c #6A6A61",
"D c #686862",
"F c #696962",
"G c #6C6B63",
"H c #6D6D63",
"J c #6B6A64",
"K c #6D6D64",
"L c #6D6D66",
"P c #6D6C67",
"I c #6F6E68",
"U c #706F69",
"Y c #72716B",
"T c #72726D",
"R c #74736C",
"E c #74746D",
"W c #75756E",
"Q c #76756E",
"! c #777770",
"~ c #797871",
"^ c #7C7B74",
"/ c #7D7C75",
"( c #7F7F78",
") c #808079",
"_ c #84837D",
"` c #85857E",
"' c #878781",
"] c #888781",
"[ c #888881",
"{ c #8B8B85",
"} c #8C8B85",
/* pixels */
"ccccccccccccccbblbb",
"llllllllllllllllllb",
"fffffffflhhhhffhfll",
"aaaaaaaaufudafuaauf",
"uuuuuuuuuuuuuuuuuuu",
"ttttttttttttttttrrt",
"rrrrrrrretrerrrrrrr",
"e0e0e0024::6eeee0ee",
"66664-*tllf1&:66480",
"444::bGKKJHHDe=>444",
"2:-1DKJJHHHHHHh&1>:",
"-**ZDKDJDDDDDHDu&::",
"&&lDDBjjllzlbDDD-+$",
"+&ZZZl+1141*4DBZf+$",
" qBBBz1ZBZZj:BZBN@+",
"+uBBBl:BBBBz1BBBB@ ",
"+uZCBj1BBNZf:BBBB$X",
" immmj1BNNmz:NmNN$+",
" 1mBNj*jjflr1NNNl+X",
" @xBmj-1,,-18NmC8  ",
"  8mmmcmmNbNmmbl+ O",
"  +immmmbmmmmmm*+O ",
"  X+qcmmcmxmbl@    ",
"   X+$ixmcxj8@X    ",
"      X@++++      O",
"       X  +       O",
"                  O",
"                  O",
"   X X  .  + +.. OO",
"ccxcxccxbbzbzlbbjbx",
"llllllllllllllllllz",
"fffffffhffffflffffz",
"ssaaaaaaaaaaaaaafuf",
"ysatuuuuuuuuuuuuuuu",
"ttttttttttttttttttt",
"eteerrrrrrrrrrrrrrr",
"eee9ee961:26e8ee0we",
"6692:-2cIRDq,166746",
"66266!}}{{{{'f-2444",
"-:%e`]]]]]''']U$:11",
"*,1)____`_``_``b&,,",
"**P))^IUIIIIU())1@*",
"+;^^^I@889929^^^C&+",
" s~!!J8~!~~J9~!!E&+",
"+x~!WZ8!!QQD6WWWQ*O",
" bRRRC2RRWWN8RYWQ&O",
" jRTRm2UURUN2YYYU+o",
" 3UUIm2mmxms2UYJCOo",
" +JIPC111181qGJJwO.",
" +8JJJJJJJJJJKJZ+OO",
"   aZZDZDDDCDDZ&O.O",
"  O@iZZCNCCCBb*OO..",
"     @immmmz8+   .O",
"    OO+@+O++O    ..",
"      O           .",
"                  O",
"                  o",
"                  o"
};
