/* XPM */
static char *menubg[] = {
/* columns rows colors chars-per-pixel */
"10 5 50 1 ",
"  c #3F3D39",
". c #43423D",
"X c #474640",
"o c #4C4A43",
"O c #504E47",
"+ c #54534A",
"@ c #59574E",
"# c #514F47",
"$ c #484740",
"% c #3F3E3A",
"& c #3F3D39",
"* c #43423D",
"= c #474640",
"- c #4C4A43",
"; c #504E47",
": c #55534A",
"> c #59574E",
", c #514F47",
"< c #484740",
"1 c #3F3E3A",
"2 c #3F3D39",
"3 c #43423D",
"4 c #474640",
"5 c #4C4A43",
"6 c #504E47",
"7 c #55534A",
"8 c #59574E",
"9 c #514F47",
"0 c #484740",
"q c #3F3E3A",
"w c #3F3D39",
"e c #43423D",
"r c #474640",
"t c #4C4A43",
"y c #504E47",
"u c #55534A",
"i c #59574E",
"p c #514F47",
"a c #484740",
"s c #3F3E3A",
"d c #3F3D39",
"f c #43423D",
"g c #474640",
"h c #4C4A43",
"j c #504E47",
"k c #55534A",
"l c #59574E",
"z c #514F47",
"x c #484740",
"c c #3F3E3A",
/* pixels */
" .XoO+@#$%",
"&*=-;:>,<1",
"234567890q",
"wertyuipas",
"dfghjklzxc"
};
