/* XPM */
static char *menuButtonA[] = {
/* columns rows colors chars-per-pixel */
"29 58 23 1 ",
"  c #3C3B37",
". c #3F3E39",
"X c #41403B",
"o c #44433D",
"O c #47453F",
"+ c #4A4841",
"@ c #4C4A43",
"# c #4F4D45",
"$ c #525048",
"% c #51514B",
"& c #54524A",
"* c #54534C",
"= c #54544C",
"- c #56554D",
"; c #595750",
": c #5B5A53",
"> c #5E5C55",
", c #5E5D55",
"< c #605F58",
"1 c #686860",
"2 c #6B6B61",
"3 c #6D6D64",
"4 c #9C9C90",
/* pixels */
"<<<<<<<<<<<<<<<<<<<<><<<<<<<<",
">>>>>>>>>>>>>>>>>>>>>>>>>>>>>",
":::::::::::::::::::::::::::::",
";;;;;;;;;;;;;;;;;;;:;;;::;;;;",
"--------------------------==-",
"&&&&&&&&&&&&&&&&&$&&&&&&=$===",
"$$$$$$$$$$$$$$$$$$$$$$$$&$$$$",
"#############################",
"@@@@@@@@@@@@@@@@####O#O#O####",
"++++++++++++++++OOOOO#OOOOOOO",
"OOOOOOOOOOOOOOOOOOOOOOOOOOOOO",
"ooooooooooooooooooooOOooOOOXO",
"XXXXXXXXXXXXXXXXXXXXXXXXXXXX.",
"................XX..........X",
"                             ",
"                             ",
"                             ",
"                             ",
"                             ",
"                             ",
"                             ",
"                             ",
"                             ",
"                  34444443   ",
"                   344442.   ",
"                    2441     ",
"                     31      ",
"                             ",
"                    .  . . . ",
"<<<<<<<<<<<<<<<<<<<<<,,<,<,<>",
">>>>>>>>>>>>>>>>>>>>,,,,,,><>",
":::::::::::::::::::::::::::::",
";;;;;;;;;;;;;;;;;;;;;;:;;;;;;",
"-----=-----------------------",
"=$$==&$=&&&&&&&&$==$$*&&&&$&&",
"$$$$$$$$$$$$$$$$$$$$$$$$$$$$$",
"$#######################$####",
"@+@@@@@@@@@@@@@@@+@@#+#+@+@@@",
"++++++++O@O@@OO@+++++++++++++",
"OOOOOOOOOOOOOOOOo+o+o+o+o+o+o",
"ooooooooOoooooooooooooooooooo",
"XXXXXXXXXXXXXXXXXXXXXXXXXXXXX",
"........X....................",
"                             ",
"                             ",
"                             ",
"                             ",
"                             ",
"                             ",
"                             ",
"                             ",
"                             ",
"                  =222222=   ",
"                  .$2222$    ",
"                    =22$     ",
"                    .=$.     ",
"                             ",
"                             "
};
