/* XPM */
static char *menuButtonI[] = {
/* columns rows colors chars-per-pixel */
"29 58 24 1 ",
"  c #3C3B37",
". c #3F3E39",
"X c #41403B",
"o c #44433D",
"O c #47453F",
"+ c #4A4841",
"@ c #4C4A43",
"# c #4F4D45",
"$ c #525048",
"% c #51514B",
"& c #54524A",
"* c #54544C",
"= c #55554D",
"- c #56554D",
"; c #595750",
": c #5B5A53",
"> c #5E5C55",
", c #5E5D55",
"< c #605F58",
"1 c #6B6B61",
"2 c #73736D",
"3 c #797972",
"4 c #7D7C74",
"5 c #B4B4AA",
/* pixels */
"<<<<<<<<<<<<<<<<<<<<><<<<<<<<",
">>>>>>>>>>>>>>>>>>>>>>>>>>>>>",
":::::::::::::::::::::::::::::",
";;;;;;;;;;;;;;;;;;;:;;;::;;;;",
"--------------------------**-",
"&&&&&&&&&&&&&&&&&$&&&&&&*$***",
"$$$$$$$$$$$$$$$$$$$$$$$$&$$$$",
"#############################",
"@@@@@@@@@@@@@@@@####O#O#O####",
"++++++++++++++++OOOOO#OOOOOOO",
"OOOOOOOOOOOOOOOOOOOOOOOOOOOOO",
"ooooooooooooooooooooOOooOOOXO",
"XXXXXXXXXXXXXXXXXXXXXXXXXXXX.",
"................XX..........X",
"                             ",
"                             ",
"                             ",
"                             ",
"                             ",
"                             ",
"                             ",
"                             ",
"                             ",
"                  *111111*   ",
"                   =1111$.   ",
"                    -11$     ",
"                     =$      ",
"                             ",
"                    .    . . ",
"<<<<<<<<<<<<<<<<<<<<<><<,,,,>",
">>>>>>>>>>>>>>>>>>:>,,,,,,,,>",
"::::::::::::::::::::::::::::<",
";;;;:;;;;;::;;;;;;;;;;;;;;;;;",
"----------------;-**--------*",
"$==$$*-$$$*$&&$$$*-$$&&&&&$**",
"$$$$$$$$$$$$$$$$$$$$&$$$$$$&$",
"$###############$@###$+$##@##",
"#+++@@++@@@@@@@@@+@@++#+@@@@@",
"+++++++++++++++++++++++++o@++",
"OOOO++OOOOOOOOOOOOOOO+OOo++o+",
"ooooooooOoooooooooooooooooooo",
"XXXXXXXXX.XXXXXXXXXXXXXXXXXXX",
".............................",
"                             ",
"                             ",
"                             ",
"                             ",
"                             ",
"                             ",
"                             ",
"                             ",
"                             ",
"                  45555553.  ",
"                   355552    ",
"                    3552     ",
"                     32      ",
"                             ",
"                             "
};
