/* XPM */
static char *minimizeA[] = {
/* columns rows colors chars-per-pixel */
"19 58 79 1 ",
"  c #3C3B37",
". c #3D3C37",
"X c #3D3B38",
"o c #3C3C38",
"O c #3E3D39",
"+ c #3F3E3B",
"@ c #403F3B",
"# c #413F3B",
"$ c #40403A",
"% c #40403B",
"& c #42413D",
"* c #42423D",
"= c #45423E",
"- c #47453F",
"; c #47463F",
": c #474540",
"> c #464640",
", c #4A4741",
"< c #4A4841",
"1 c #4C4A42",
"2 c #4A4844",
"3 c #4B4B45",
"4 c #4C4A44",
"5 c #4E4C45",
"6 c #4E4D49",
"7 c #4F4F4A",
"8 c #504E46",
"9 c #525048",
"0 c #54524A",
"q c #52524C",
"w c #54534E",
"e c #56554D",
"r c #555550",
"t c #595750",
"y c #5A5850",
"u c #5B5A53",
"i c #5A5A54",
"p c #5E5C55",
"a c #5C5C56",
"s c #605F58",
"d c #606058",
"f c #63635D",
"g c #65655E",
"h c #66665F",
"j c #676761",
"k c #686761",
"l c #6A6A64",
"z c #6B6A64",
"x c #6D6C66",
"c c #6D6C67",
"v c #6E6D67",
"b c #6F6F68",
"n c #706F68",
"m c #70706A",
"M c #71716A",
"N c #74736B",
"B c #75746D",
"V c #77766F",
"C c #777770",
"Z c #797871",
"A c #7C7B74",
"S c #7C7B75",
"D c #7D7C75",
"F c #7F7F78",
"G c #807F78",
"H c #807F79",
"J c #808079",
"K c #818079",
"L c #83837C",
"P c #84837C",
"I c #84837D",
"U c #84847D",
"Y c #858580",
"T c #878780",
"R c #878781",
"E c #888781",
"W c #888881",
"Q c #8B8B85",
"! c #8C8B85",
/* pixels */
"sssssssspsddssdpddd",
"ppppppppppppppppppd",
"uuuuuuuuuuuuiuuuuuu",
"tttttttttttuutttttu",
"eeeeeeeeeeeeeeeeeee",
"0000000009000000080",
"9999999999999999980",
"8585855,;;<18585888",
"1111<>2smmlq&>2<141",
"<<<>>ZQ!!QQQRp;<<<,",
"--=5UWEEEERRWUv&>>-",
"=&>KUUIIIIIIUKIg&=;",
"$&vHKKFHHHGGGGHH,&#",
"O-SSDDDSSSASAASZkOO",
" rZZZZZZZZZZZZZCV&O",
"OsCCVNkkkkjjzVVVV&O",
"OdNVVl2<252<eNVNm&O",
".ummmmmmmmmmmmbmm$ ",
"O<bmmbbbmnvbbbvvj$o",
"OOjvvvvvvvlvvvvv6 o",
"XX6llvlzzzzzllvg$ o",
"  Oijjjzjzjgjjg&X o",
"   Oqfgggjgjjd&X  O",
"   XO&effgdp2O     ",
"      OO$O$OO     o",
"      OO  o       o",
"                  o",
"                  o",
"           O      o",
"ssssssssdddpddddssd",
"ppppppppppppppppppp",
"uuuuuuuuuuuuuuuupii",
"ttttutttttutttttutt",
"eeeeeeeeeeeeeeeeeee",
"0099000090000090000",
"9999999999999999999",
"5858584<>,<<8<49588",
"142<<><dnmk6>,144<4",
"<,<,<C!!QQQQRi>,,,<",
">,=5URWWEERRRRb&-<>",
"&&>KUUIIIIPPKKUg=&>",
"#&cKKKHHHHHHKKFK>O&",
"#&DDDDSSSSSSAASSgOO",
"OeZZZZZZZZZZZZZZV&O",
"OfCCZmkkjzjzzVVVV& ",
"OdVmVg12,2<<9ZVbV& ",
"XpmmmVmmmmmmmbmmm&o",
" <nmnnnbnmbnnbbvg$o",
" Olcvcccblvcccvv6 o",
"XX6lzzzzllllzzzg$ o",
"X Oizjgzjjjjgkj&. .",
"  OO9gggjggjgs&.   ",
"    O&rdfffd2O    o",
"    ooO$$OOOO     o",
"      oo    O     o",
"                  o",
"                  o",
"                  o"
};
