/* XPM */
static char *minimizeI[] = {
/* columns rows colors chars-per-pixel */
"19 58 94 2 ",
"   c #3C3B37",
".  c #3D3B38",
"X  c #3C3C38",
"o  c #3F3E39",
"O  c #3F3E3B",
"+  c #403F3A",
"@  c #403F3B",
"#  c #413F3B",
"$  c #40403B",
"%  c #41413C",
"&  c #42413C",
"*  c #43423C",
"=  c #44433D",
"-  c #45423E",
";  c #44443E",
":  c #47453F",
">  c #464540",
",  c #474540",
"<  c #474742",
"1  c #494741",
"2  c #484742",
"3  c #4A4841",
"4  c #4C4A42",
"5  c #4D4B43",
"6  c #4A4944",
"7  c #4C4A44",
"8  c #4D4B47",
"9  c #4E4C45",
"0  c #4F4D45",
"q  c #4E4D48",
"w  c #4F4F4A",
"e  c #504E46",
"r  c #525048",
"t  c #51504A",
"y  c #51504B",
"u  c #54524A",
"i  c #53534C",
"p  c #54534E",
"a  c #56554D",
"s  c #56564E",
"d  c #555550",
"f  c #595750",
"g  c #595751",
"h  c #595951",
"j  c #5A5850",
"k  c #5B5A53",
"l  c #5A5A54",
"z  c #5B5B54",
"x  c #5C5A54",
"c  c #5E5C55",
"v  c #5F5E58",
"b  c #605F58",
"n  c #606058",
"m  c #61615B",
"M  c #62615B",
"N  c #62625C",
"B  c #63635C",
"V  c #66655D",
"C  c #66665F",
"Z  c #666560",
"A  c #686760",
"S  c #686761",
"D  c #696961",
"F  c #696863",
"G  c #6C6B63",
"H  c #6C6C63",
"J  c #6B6A64",
"K  c #6D6D66",
"L  c #6D6C67",
"P  c #6F6E68",
"I  c #6F6F68",
"U  c #706F69",
"Y  c #72716A",
"T  c #72726D",
"R  c #74736C",
"E  c #76756E",
"W  c #777770",
"Q  c #797871",
"!  c #7C7B74",
"~  c #7C7B75",
"^  c #7D7C75",
"/  c #7F7F78",
"(  c #807F78",
")  c #807F79",
"_  c #83837C",
"`  c #84837C",
"'  c #84837D",
"]  c #85857E",
"[  c #858580",
"{  c #878781",
"}  c #888781",
"|  c #888881",
" . c #8B8B85",
".. c #8C8B85",
/* pixels */
"b b b b b b b b n b b n b b n b b n n ",
"c c c c c c c c c c c c c c c c c c c ",
"k k k k k k k k x x x x x k k k k k c ",
"f f f f f f f f j a a x j j a k a j j ",
"a a a a a a a a a a a a a a a a a a a ",
"u u u u u u u u u u u u u u u u u u u ",
"r r r r r r r r r r r e r r w r r r r ",
"0 0 0 0 0 0 0 5 : 5 5 0 0 e 0 e 0 0 e ",
"5 5 3 7 6 = = 1 w r 8 = = 1 6 1 0 3 7 ",
"1 3 3 1 = a D H H H P H m 1 1 1 1 3 3 ",
": : = & V H H H H H G H G G r $ 1 = 1 ",
"= & & V G G D G D G D D D G D e & = = ",
"& $ x S D D D D D D D D Z D D S & & = ",
"+ + S S D V V D S D D D S D S S a @ O ",
"  7 S S V Z V Z S V S V S V D Z m O . ",
"  a V V V V x z k k k z x V V V V O X ",
"O x V Z Z c > > > 1 > 1 q Z V V V & X ",
"O d B V B Z m V m Z m V V m V V V @ X ",
"  = m V V m B V m S m V B V V B c O X ",
"O O m Z B Z V m V m Z B Z m m m q O X ",
"    6 m B m Z Z m m m Z m m B n O   X ",
"    O k m m m m V m m B V n m >     X ",
"      O p m B m m B B m M x $         ",
"        & & d m n m m c 5 $         X ",
"              $ $ O O   $           X ",
"                                    X ",
"                                    X ",
"                                    X ",
"X O                   O X X   O     X ",
"n c n n n n n c n n n c n n c n v n n ",
"x c c c c c c c c c c c c c x c c x c ",
"k k k k k k k x k k k k k k k z c z z ",
"j j a k d k j a j j a j j k a k x a a ",
"a a a a a a a a a a a a a a a a a a a ",
"u u e u u u r r u u u u u u r u u u u ",
"r r r r r e p p u r r r r r r r r r w ",
"e e e e 0 0 0 1 = 1 1 7 0 7 e 7 e 0 e ",
"5 5 3 5 5 = 1 b U T S w = > 5 e 7 7 7 ",
"1 3 3 : > W .......... .[ x = 5 3 3 3 ",
"= 1 = q ] | | } } } } [ } } U + > > > ",
"1 $ : ~ ' ' ` ` ` ` ` ` ` ` ` V & > & ",
"O = H ] / ' ) ) ) ) ) ) ) ( ( ( > O = ",
"O $ ~ ~ ~ ~ ~ ~ ~ ~ ~ ~ ! ~ ! ! Z $ $ ",
"$ d Q Q Q Q Q Q W W Q Q Q Q Q W E O X ",
"O b E W E T D S Z D Z Z G E E E W * X ",
"O n E R E D 3 6 6 6 6 3 p T R R T & X ",
". z Y T T T Y Y T Y Y Y Y T Y Y I & X ",
". 6 Y G H Y P P P Y P P U U H U V $ X ",
"O O G G P P H P I J J I K J I J w X X ",
"    8 G J J J J J J J J J J J B $ X   ",
"    O a Z F Z F C J C Z C C C & O     ",
"      O p V Z Z Z Z C Z C m * $ X     ",
"        O $ a m v m m z 7 O         X ",
"        X X O O $ O & & O           X ",
"            X X                     X ",
"                                    X ",
"                                    X ",
"                                    X "
};
