/* XPM */
static char *minimizeO[] = {
/* columns rows colors chars-per-pixel */
"19 58 121 2 ",
"   c #3C3B37",
".  c #3D3C37",
"X  c #3C3C38",
"o  c #3D3C39",
"O  c #3E3C38",
"+  c #3E3D38",
"@  c #3F3F3A",
"#  c #3F3E3B",
"$  c #403E3A",
"%  c #413F3B",
"&  c #413F3C",
"*  c #40403A",
"=  c #40403B",
"-  c #43423C",
";  c #44433D",
":  c #44433F",
">  c #47453F",
",  c #47463F",
"<  c #474741",
"1  c #474642",
"2  c #474742",
"3  c #4A4741",
"4  c #4A4841",
"5  c #4C4A42",
"6  c #4B4B45",
"7  c #4B4A46",
"8  c #4C4A44",
"9  c #4E4C45",
"0  c #4F4D45",
"q  c #4F4F4A",
"w  c #504E46",
"e  c #514F4B",
"r  c #525048",
"t  c #54524A",
"y  c #52524C",
"u  c #53524E",
"i  c #54534E",
"p  c #56554D",
"a  c #555550",
"s  c #595750",
"d  c #585752",
"f  c #595853",
"g  c #5B5A53",
"h  c #5B5B55",
"j  c #5E5C55",
"k  c #5C5C56",
"l  c #605F58",
"z  c #605F5A",
"x  c #606058",
"c  c #60605A",
"v  c #61615B",
"b  c #62615C",
"n  c #65645E",
"m  c #64645F",
"M  c #66665F",
"N  c #666560",
"B  c #676761",
"V  c #696962",
"C  c #6B6A64",
"Z  c #6C6A64",
"A  c #6C6A67",
"S  c #6D6C66",
"D  c #6E6D67",
"F  c #6F6F68",
"G  c #706F68",
"H  c #72716A",
"J  c #74736B",
"K  c #72726D",
"L  c #75736D",
"P  c #74746E",
"I  c #75756E",
"U  c #777770",
"Y  c #777673",
"T  c #797871",
"R  c #7A7A72",
"E  c #7C7B74",
"W  c #7C7B75",
"Q  c #7C7C75",
"!  c #7D7D75",
"~  c #7F7F77",
"^  c #807F78",
"/  c #807F7A",
"(  c #808078",
")  c #808079",
"_  c #80807A",
"`  c #82827A",
"'  c #81817C",
"]  c #83837C",
"[  c #84837C",
"{  c #84847C",
"}  c #85847D",
"|  c #86867E",
" . c #87867F",
".. c #848480",
"X. c #878780",
"o. c #878781",
"O. c #888781",
"+. c #898981",
"@. c #8B8A83",
"#. c #8B8B85",
"$. c #8B8B86",
"%. c #8C8B84",
"&. c #8D8D85",
"*. c #8F8E87",
"=. c #908F88",
"-. c #92918A",
";. c #94938C",
":. c #97968F",
">. c #979790",
",. c #989790",
"<. c #9B9A93",
"1. c #999994",
"2. c #9C9B95",
"3. c #9E9E99",
"4. c #9F9E99",
"5. c #9F9F99",
"6. c #A2A29C",
"7. c #A3A29D",
"8. c #A3A39D",
"9. c #A6A6A1",
"0. c #A7A6A2",
/* pixels */
"l l l l l l l l j x l l l l x x x x x ",
"j j j j j j j j j j j j j j j j j j j ",
"g g g g g g g g g g g g g g g g g g j ",
"s s s s s s s s s s g g s s s s s s s ",
"p p p p p p p p p p p p p p p p p p p ",
"t t t t t t t t t t t t t t i r p r p ",
"r r r r r r r r w r r r r r r r r r r ",
"w 9 w 9 w 9 9 3 < > 4 5 9 w 9 9 9 w 9 ",
"5 5 5 5 4 4 7 A ' ..Y s < < 4 4 5 5 9 ",
"4 4 3 3 7 &.0.0.0.0.0.0.4.n < 4 4 , 4 ",
"> > : u 1.8.7.7.8.8.7.7.6.7._ > 4 > > ",
": - 2 1.7.4.4.4.4.1.3.4.6.1.4.I 2 - : ",
"* : _ 2.1.2.1.2.2.1.2.1.2.1.,.2.7 * * ",
"+ 3 ,.>.,.,.>.,.>.>.>.;.,.,.:.:.Y + - ",
"  b ;.;.;.;.;.-.;.;.;.;.;.;.;.;.#.1 O ",
"+ K -.-.-.&.! ! Q ! Q Q ^ -.-.-.-.- O ",
"$ L *.;.=.^ e r e e e e z =.=.&.=.2   ",
"O V &.&.*.&.&.&.&.&.&.&.+.&.&.&.&.-   ",
"O e @.@.@.@.@.@.+.@.#.@.&.#.+.%.! - X ",
"+ * } +.+.+.+.O.+.+.O.+.O.O.+.+.g X X ",
"  O s ..| | |  . . . . .| | | ! - X X ",
"    - Z | |  .| } [ { [ { ' _ < O X X ",
"    O & x _ _ [ _ _ _ [ ' R 4 + X     ",
"      O * , V ! ( ( ^ J d - X         ",
"            + - ; * > *             X ",
"            X O                     X ",
"                                    X ",
"                                    X ",
"    X                 +     X X     X ",
"x z j j z z z j x x j x x j c c z z z ",
"j j j j j j j j j j j j j j j j j j j ",
"g g g g g g g j g g g g g g g g g g g ",
"g s s s s s s s s s s s s s s s s s s ",
"p p p p p p p p p p p p p p p p p p p ",
"t t w t t t i r t t t t t t t t t t t ",
"r r r r r r r r r r r r r r r r t w t ",
"w 9 w 9 w 9 9 3 > > 3 7 w 4 w w w 7 w ",
"5 5 5 4 4 > 3 x D K B u 1 2 5 5 5 4 5 ",
"4 4 4 3 4 R #.&.%.%.&.%.} j : 3 3 4 3 ",
"2 > : 9 | ....+.o.o...+...| D : 1 2 2 ",
"* : 1 ^ | | ' } | ' [ [ [ _ | n - 2 - ",
"$ : Z ^ ~ / ^ ^ ~ ~ ^ ( ^ ^ _ E 2 # & ",
"$ 2 E ! E ! E E W ! W E E E ! E B + + ",
"$ i R Y R Y Y R W Y Y T T T R R P - + ",
"  l Y I I L B V B B n n V I I Y I - X ",
"$ l I J L V 7 3 5 7 7 7 i J H J K - X ",
"+ s J H K H H H H H H H H G H H H - X ",
"O 7 G G G G F F F G G D G G G G n $ X ",
"  + B F A F Z D F Z F Z F Z F D q X X ",
"O O q C C C C C V D B C C C B N +   X ",
"X   O d B V B B V B B B B B B - +   X ",
"    O + u m n B b B B B N c * + X   X ",
"          - d c b b b k 7 +         X ",
"          + + + - * = +             X ",
"            X X                     X ",
"              X                     X ",
"                                    X ",
"                                    X "
};
