/* XPM */
static char *restoreA[] = {
/* columns rows colors chars-per-pixel */
"19 58 83 1 ",
"  c #3C3B37",
". c #3D3C37",
"X c #3D3B38",
"o c #3C3C38",
"O c #3E3D39",
"+ c #3F3E3B",
"@ c #403F3A",
"# c #40403A",
"$ c #40403B",
"% c #42413D",
"& c #44433D",
"* c #45423E",
"= c #47453F",
"- c #47463F",
"; c #464640",
": c #4A4741",
"> c #484742",
", c #484743",
"< c #4A4841",
"1 c #4C4A42",
"2 c #494944",
"3 c #4B4A45",
"4 c #4B4B45",
"5 c #4E4C45",
"6 c #4F4F4A",
"7 c #504E46",
"8 c #525048",
"9 c #51504B",
"0 c #54524A",
"q c #52524C",
"w c #56554D",
"e c #565651",
"r c #595750",
"t c #585752",
"y c #5A5850",
"u c #595853",
"i c #5B5A53",
"p c #5C5A54",
"a c #5C5B56",
"s c #5E5C55",
"d c #5C5C56",
"f c #605F58",
"g c #615F5A",
"h c #606058",
"j c #62625C",
"k c #63635D",
"l c #64645D",
"z c #65655E",
"x c #67665F",
"c c #666560",
"v c #686861",
"b c #686862",
"n c #696863",
"m c #6A6A63",
"M c #6A6A64",
"N c #6C6B65",
"B c #6C6B66",
"V c #6D6C67",
"C c #6F6E68",
"Z c #706F68",
"A c #706F69",
"S c #70706A",
"D c #72716B",
"F c #72726D",
"G c #74736C",
"H c #74746D",
"J c #76756E",
"K c #777770",
"L c #797871",
"P c #7C7B74",
"I c #7D7C75",
"U c #7F7F78",
"Y c #807F78",
"T c #807F79",
"R c #818079",
"E c #83837C",
"W c #84837C",
"Q c #84847D",
"! c #878781",
"~ c #888781",
"^ c #888881",
"/ c #8B8B85",
"( c #8C8B85",
/* pixels */
"ffffffffhffhffhhshh",
"ssssssssspsssssissh",
"iiiiiiiiiipipiiiiii",
"rrrrrrrrrrriirrrryi",
"wwwwwwwwwwwwwwwwrww",
"0000000008000000070",
"8888888888888888888",
"7575755:=;:15757577",
"1111<;2fSFn8%;2<5<1",
"<<<;;L(((///!s;<<<<",
"==*5Q^~~~!!!!QC%:==",
"*%;RQQWWWQQQRQQz%%=",
"#%VTRRTTTTTTYYTU<O%",
"O=IIIVVBBBBBBGIIz%O",
" eLLL 22,222*uLLJ%O",
"OfKJJOJLLLLJrrJJJ%O",
"OhJJGoHGGGJFeiJSS%O",
"OiSSFoclllkl6rSSS#O",
".<FVV<:;;2;<:dVSz#O",
"o#MVVVVCVBVVVVVV6 o",
"  6nMMMMBnmBnmml# o",
"  OivvMcvvvvnnz=X o",
"  oO8ccvclzzch%   o",
"    O%ehllkd2O    o",
"      OO#O#OO     o",
"       O  O       o",
"                  o",
"                  o",
" Ooo          o.  o",
"shshffffhhhhhshhffh",
"sssssspsssssssshsss",
"issupusuiiiiiiipusu",
"iwrrrrrrrrrrrrrriri",
"wwwwwwwwwwwwwwwwwww",
"0080000q00000000000",
"8888888888888888888",
"5777575:=;<<7575777",
"1112<;:fZFMq*;112<1",
"<<<;;L((////!p;::<<",
":=*5Q^^~~!!!Q~V%=;:",
"*%;TQQWWWWWWWTWc%=%",
"O%CRRTTTTTTUTTUR;#%",
"O;PPICCBBVBVBJPPz@O",
"XwLLL 2<2211*uLLJ%O",
"OkKKJXJKKJKJiiJJK*.",
"OhGFF JHJFHHeeFJS% ",
"OuFFFXzkkzll6rSFF%o",
"X<ZVC,,2;:,2;sVBzOo",
" OnVVVVVVVVVVVVV8.o",
"XO6MnnmmMMnnmmmz#.o",
"  OicmmmMvvcvnz%. o",
"  XOqzzzzczczh%.o o",
"    O%thkkkf2O    o",
"    ..O##OOOO     o",
"      Oo    ..    o",
"                  o",
"                  o",
"                  o"
};
