/* XPM */
static char *restoreO[] = {
/* columns rows colors chars-per-pixel */
"19 58 112 2 ",
"   c #3C3B37",
".  c #3C3C38",
"X  c #3D3C39",
"o  c #3E3D38",
"O  c #3F3F3A",
"+  c #3F3E3B",
"@  c #403E3A",
"#  c #413F3B",
"$  c #413F3C",
"%  c #40403A",
"&  c #40403B",
"*  c #43423C",
"=  c #43433E",
"-  c #44433D",
";  c #44433F",
":  c #47453F",
">  c #47463F",
",  c #454440",
"<  c #474742",
"1  c #4A4741",
"2  c #484743",
"3  c #4A4841",
"4  c #4C4A42",
"5  c #4B4B45",
"6  c #4B4A46",
"7  c #4C4A44",
"8  c #4E4C45",
"9  c #4E4D49",
"0  c #504E46",
"q  c #504F4A",
"w  c #525048",
"e  c #51504B",
"r  c #54524A",
"t  c #52504C",
"y  c #52524C",
"u  c #53524E",
"i  c #56554D",
"p  c #595750",
"a  c #585752",
"s  c #5A5850",
"d  c #595853",
"f  c #5B5A53",
"g  c #5B5B55",
"h  c #5C5A54",
"j  c #5E5C55",
"k  c #5E5E56",
"l  c #605F58",
"z  c #606058",
"x  c #60605A",
"c  c #62615C",
"v  c #64645D",
"b  c #64645E",
"n  c #65655F",
"m  c #67665F",
"M  c #666560",
"N  c #686762",
"B  c #686861",
"V  c #686862",
"C  c #6B6A64",
"Z  c #6C6A64",
"A  c #6C6B65",
"S  c #6C6A67",
"D  c #6C6C66",
"F  c #6D6C67",
"G  c #706F69",
"H  c #73726C",
"J  c #72726D",
"K  c #74736C",
"L  c #74736D",
"P  c #74746E",
"I  c #75756E",
"U  c #77766F",
"Y  c #777770",
"T  c #777673",
"R  c #797871",
"E  c #7A7A72",
"W  c #7C7B74",
"Q  c #7D7D75",
"!  c #807F78",
"~  c #807F7A",
"^  c #808078",
"/  c #818179",
"(  c #80807A",
")  c #83837B",
"_  c #81817C",
"`  c #84837C",
"'  c #84847C",
"]  c #84847D",
"[  c #87867F",
"{  c #87877F",
"}  c #848480",
"|  c #878781",
" . c #898881",
".. c #898981",
"X. c #8B8B86",
"o. c #8C8A84",
"O. c #8C8B84",
"+. c #8D8C85",
"@. c #8F8E87",
"#. c #8F8F88",
"$. c #908F88",
"%. c #92918A",
"&. c #94938C",
"*. c #989790",
"=. c #9B9A93",
"-. c #999994",
";. c #9C9B95",
":. c #9E9E98",
">. c #9F9E99",
",. c #A2A29C",
"<. c #A3A29D",
"1. c #A7A6A2",
/* pixels */
"l l l l l l l l l l l z l l z j z z z ",
"j j j j j j j j j j j j j j j j j j z ",
"f f f f f f f f f f f h f f f f f f f ",
"p p p p p p p p p p p p f p p p p s s ",
"i i i i i i i i i i i i i i i i i i i ",
"r r r r r r r r r r r r r r r r r w r ",
"w w w w w w w w 0 w w w w w w w w w w ",
"0 8 0 8 0 8 8 1 : < 1 4 8 0 8 8 0 8 0 ",
"4 4 4 4 1 < 6 S Q } T d < < 1 3 3 8 3 ",
"3 3 1 1 6 X.1.1.1.1.1.1.>.n < 1 3 3 3 ",
": : ; u >.,.,.1.,.,.,.,.,.,.~ : 1 : < ",
"; * < -.,.>.>.>.>.>.>.>.:.:.>.I < * : ",
"% ; ( -.;.;.-.;.-.-.;.;.=.=.;.-.6 @ % ",
"o 1 *.*.*.( _ Q ~ ( ~ ~ ~ o.&.*.I ; @ ",
"  c &.&.&.o q w u q u q 1 N &.%.#.* o ",
"o J %.%.%.o %.%.%.%.%.%.n M %.%.%.; o ",
"@ I %.%.$.  $.$.%.+.$.+.n n O.%.#.1   ",
"o V +.+.O.  E E E E E R j n +.+.X.; . ",
"  q O...O.9 w q 9 9 q q 9 S ..O.W * . ",
"  ; ` ....| ..........| ........g . . ",
"    p | o.' { [ | [ [ [ ' ' } Q * . . ",
"    @ Z ' ' ' ' ` ` ' ` ' ' ( 4 . . . ",
"    o $ c ^ ' ^ ^ ( ( ( ( E , o .   . ",
"      X @ > B ! ^ ^ ^ I p $ X       . ",
"            o ; * * * * . .         . ",
"              X     . .   .         . ",
"                                    . ",
"                                    . ",
"          o                 . o   o . ",
"l l l l j l l l z z z l l l z j j z j ",
"j j j j j j j j j j j j j j j j j j j ",
"f f f f f f f f f f f f f f f g g g g ",
"p p p p p p p p p p p p p p p p g p p ",
"i i i i i i i i i i i i i i i i i i i ",
"r r r r r r r u r r r r r r r r r r r ",
"0 r 0 q w w w w w w w w w w w w w w w ",
"0 0 8 8 0 8 8 1 : < 1 3 8 8 8 8 0 8 0 ",
"4 4 8 3 3 : 1 l G P B 9 : : 7 4 3 1 4 ",
"1 1 1 : 3 E X.+.X.X.X.X.} g : 3 1 1 1 ",
"1 : ; 8 ' ....} ..' ....} ..F * : < < ",
", * ; ( ' _ ' ' ' ' ` ( ' ` ` n * * < ",
"@ , A ~ ( _ ~ Q ~ ~ ^ ( ( ^ Q ! 2 o $ ",
"@ ; W Q Q F F D S G S V A H Q W M + o ",
"  i R R E o 7 4 3 7 6 6 ; h R E Y * o ",
"  l E U I o I I Y I I I p g J I I :   ",
"o c L L J   I L J I I J p p L I I %   ",
"  f L H J o n c n n b b 9 p J H J o . ",
"  6 G A S 6 1 1 < 1 2 2 3 j F A M % . ",
"  @ V F D D D D D D D F F D F D w o . ",
"  X 9 S S S F V V S D V B C V n %   . ",
"    o p B B V B B B V B B V V %     o ",
"    X o w n m m M M M M n z :         ",
"        o % f l M c c j 6 o         . ",
"        o o o o o o & o o           . ",
"            . .           .         . ",
"          . . .                     . ",
"                                    . ",
"                                    . "
};
