/* XPM */
static char *restoreI[] = {
/* columns rows colors chars-per-pixel */
"19 58 98 2 ",
"   c #3C3B37",
".  c #3C3C37",
"X  c #3D3B38",
"o  c #3C3C38",
"O  c #3F3F39",
"+  c #3F3E3B",
"@  c #413F3B",
"#  c #40403A",
"$  c #41403B",
"%  c #42403C",
"&  c #43423C",
"*  c #45423E",
"=  c #46453E",
"-  c #47453F",
";  c #47463F",
":  c #464540",
">  c #474641",
",  c #474642",
"<  c #4A4741",
"1  c #4A4841",
"2  c #4C4A42",
"3  c #494944",
"4  c #4C4A44",
"5  c #4E4C45",
"6  c #4F4D45",
"7  c #4C4C46",
"8  c #4E4D49",
"9  c #4F4F4A",
"0  c #504E46",
"q  c #504F4A",
"w  c #525048",
"e  c #50504B",
"r  c #52514B",
"t  c #54524A",
"y  c #52524C",
"u  c #56554D",
"i  c #54544F",
"p  c #55544F",
"a  c #57564F",
"s  c #555550",
"d  c #565651",
"f  c #595750",
"g  c #5A5850",
"h  c #585852",
"j  c #595853",
"k  c #5B5A53",
"l  c #5B5B53",
"z  c #5C5A53",
"x  c #5A5954",
"c  c #5C5C55",
"v  c #5E5C55",
"b  c #5E5D55",
"n  c #5F5F59",
"m  c #605F58",
"M  c #615F5A",
"N  c #606058",
"B  c #60605A",
"V  c #61615B",
"C  c #63615A",
"Z  c #63635C",
"A  c #64645E",
"S  c #65645E",
"D  c #66655E",
"F  c #68675F",
"G  c #666560",
"H  c #686760",
"J  c #6A6A61",
"K  c #686862",
"L  c #696962",
"P  c #696863",
"I  c #6C6B63",
"U  c #6D6D63",
"Y  c #6B6A64",
"T  c #6C6B66",
"R  c #6D6D64",
"E  c #6C6C66",
"W  c #6D6C67",
"Q  c #6E6D67",
"!  c #706F69",
"~  c #72716B",
"^  c #72726D",
"/  c #74736C",
"(  c #75756E",
")  c #77766F",
"_  c #777770",
"`  c #7C7B74",
"'  c #7D7C75",
"]  c #7F7F78",
"[  c #807F79",
"{  c #808079",
"}  c #84837D",
"|  c #85857E",
" . c #858580",
".. c #878781",
"X. c #888781",
"o. c #888881",
"O. c #8B8B85",
"+. c #8C8B85",
/* pixels */
"m m m m m m m m B n m m m m N N N N N ",
"v v v v v v v v v v v m v z v z v v v ",
"k k k k k k k k z z z z z z z z z z v ",
"f f f f f f f f u z a a u k u k u g g ",
"u u u u u u u u u u u u u u u u u u u ",
"t t t t t t t t t t t t t t t t t t t ",
"w w w w w w w w 0 t w w w w w w w w w ",
"0 5 0 5 0 5 5 < ; ; ; 2 0 5 0 5 5 0 0 ",
"2 2 2 2 1 % = w c c d 1 % 1 2 2 4 5 1 ",
"1 1 1 = * B R R R R R R H 0 # 2 1 1 1 ",
"< = * > K I I I R R H R R R z # = > < ",
"* % % H I I Y I H K I H H H R a % * = ",
"# # v H H I G H J K F F K H H H % # % ",
"O % H G K v c l v v c c c Z F F k # O ",
"  8 G D D   > = , , = , # y H G D @ o ",
"O u D D D O D D D D D D w y D D D + o ",
"@ f S S Z o G G S G D G 8 y S G D % o ",
"  y S S G o j j l j l j 4 8 S G Z O o ",
"  > G S Z > : : > > > > < i G Z v O o ",
"o O n Z Z Z G Z Z Z Z D Z Z Z Z 7 o o ",
"o o 3 Z Z Z Z Z Z Z Z Z Z Z Z m + o o ",
"o   o i Z Z Z Z Z Z Z Z Z Z n @ o o o ",
"    o @ 9 M Z Z Z M n n Z z O   o   o ",
"    o o O @ d n n Z M j 4 O o       o ",
"            o @ # @ O O   O         o ",
"            X o     .               o ",
"            X X                     o ",
"                                    o ",
"    o o   o o o .         .   O       ",
"m m n n z m m m N N m m n B v B n n m ",
"z v v c v v z z v v v v v v v v v z z ",
"z z z z z z z z k k k k k k l z z l v ",
"f f f f a a k a a g a g g a g g l d f ",
"u u u u u u u u u a u u u u u u u u u ",
"t t t t t t t t t t t t t t t t t t t ",
"w w w q w w w q w w w w w w w w w w w ",
"0 0 0 5 0 5 4 < > < < < 0 4 0 0 5 0 0 ",
"2 2 4 1 1 = 4 m ! ^ H q - : 2 2 4 1 4 ",
"< < < < < _ +.+.O.O.O.O.X.x : < < 1 1 ",
"* ; * 0 | o.X.X.......X.X.X.Q @ = > > ",
"< @ < [ } } }  .} } } } } } } D @ = > ",
"@ @ Y [ [ [ [ [ [ ] ] ] ] ] ] ] > + @ ",
"O @ ` ` ] Y W I I Y I Y Y ~ ` ` G @ O ",
"O j _ ` ) o 4 4 4 4 4 8 @ l ` _ ( + o ",
"o M _ _ _ o / _ _ _ _ / l j ( ( ^ % O ",
"O n ^ ^ / o / / / / / ^ j j / ^ _ @ O ",
"o l ^ ^ ~ o Z S S S Z S 8 d ^ ! ~ O o ",
"o < ! ! W 3 3 > 3 < 3 > 3 n ! R D @ o ",
"o @ H R ! W Y R R R ! Y ! Y R ! 8 o o ",
"X X 8 I Y Y Y Y Y H Y Y Y Y K A # o o ",
"X   o f Y G P P H Y G P K K G %     o ",
"      @ y G G G G G G G G n + # o   o ",
"        O @ d n Z Z Z j 4 O         o ",
"        o o O + O O + + o           o ",
"            o o         o o         o ",
"              o                     o ",
"                                    o ",
"                                    o "
};
