/* XPM */
static char *rollupO[] = {
/* columns rows colors chars-per-pixel */
"17 58 54 1 ",
"  c #3C3B37",
". c #3D3C38",
"X c #3E3D38",
"o c #3F3E39",
"O c #3F3E3A",
"+ c #403F3A",
"@ c #403F3B",
"# c #41403B",
"$ c #41403C",
"% c #43423D",
"& c #44433D",
"* c #47453F",
"= c #454440",
"- c #474642",
"; c #484742",
": c #4A4841",
"> c #4C4A43",
", c #4F4D45",
"< c #4F4E49",
"1 c #525048",
"2 c #52514B",
"3 c #52524B",
"4 c #54524A",
"5 c #56554D",
"6 c #575650",
"7 c #595750",
"8 c #5B5A53",
"9 c #5C5B53",
"0 c #5C5C54",
"q c #5E5C55",
"w c #5F5E56",
"e c #5F5F57",
"r c #605F58",
"t c #606058",
"y c #616058",
"u c #636359",
"i c #66655C",
"p c #6B6B61",
"a c #75746D",
"s c #75756E",
"d c #797871",
"f c #888880",
"g c #8D8C84",
"h c #8D8D85",
"j c #8F8F86",
"k c #93928A",
"l c #96968D",
"z c #999991",
"x c #9B9A92",
"c c #9E9E95",
"v c #9F9F96",
"b c #A1A198",
"n c #A5A49C",
"m c #B4B4AA",
/* pixels */
"rrrrrrrrrrrtrrrrt",
"qqqqqqqqqqqqqqqqq",
"88888888888888888",
"77777777777685868",
"55555555555555555",
"4               1",
"1               1",
",               ,",
">      o        :",
":      odo      :",
"*     olmko     ;",
"&    okmmmgo    &",
"#   ogmmmmmgoo  #",
"o  ofmmmmmmmf   o",
"   smmlcmvxmms   ",
"   ;nl@zmz%xv-   ",
"    <=.zmz -,    ",
"      .zmz       ",
"      ozmz       ",
"      odzd       ",
"        o        ",
"                 ",
"                 ",
"                 ",
"                 ",
"                 ",
"                 ",
"           .     ",
"           .     ",
"rrrrrrrrtttqqtyyr",
"qqqqqqr8qqqqqqqqq",
"8888888888088q888",
"68576666775777778",
"55555565555555555",
"1       o       3",
"1               1",
",o              ,",
">               :",
"-      o1Oo     -",
"-o     qpqo     -",
"%    oqppp0oo   %",
"%    0ppppp0    $",
"o   8ppppppp8   o",
"   1ppttpuqpp1   ",
"   %itotpuoruo   ",
"    %o tpq.o%o   ",
"       rpt       ",
"       rpu       ",
"       5r5       ",
"                 ",
"                 ",
"                 ",
"                 ",
"                 ",
"                 ",
"                 ",
"                 ",
"                 "
};
