/* XPM */
static char *rollupI[] = {
/* columns rows colors chars-per-pixel */
"17 58 55 1 ",
"  c #3C3B37",
". c #3D3C38",
"X c #3F3E39",
"o c #3F3E3A",
"O c #403F3A",
"+ c #403F3B",
"@ c #41403B",
"# c #41403C",
"$ c #44433D",
"% c #47453F",
"& c #454440",
"* c #474641",
"= c #474642",
"- c #484742",
"; c #4A4841",
": c #4C4A43",
"> c #4F4D45",
", c #4D4C47",
"< c #525048",
"1 c #52514B",
"2 c #52524B",
"3 c #54524A",
"4 c #54534C",
"5 c #56554D",
"6 c #575650",
"7 c #595750",
"8 c #595951",
"9 c #5B5A53",
"0 c #5C5C54",
"q c #5E5C55",
"w c #5E5E56",
"e c #5F5F57",
"r c #605F58",
"t c #626259",
"y c #64645A",
"u c #66655C",
"i c #6B6B61",
"p c #75746D",
"a c #75756E",
"s c #797871",
"d c #818079",
"f c #87877F",
"g c #888880",
"h c #8D8C84",
"j c #8F8F86",
"k c #93928A",
"l c #95948B",
"z c #94948C",
"x c #96968D",
"c c #999991",
"v c #9B9A92",
"b c #9E9E95",
"n c #A1A198",
"m c #A5A49C",
"M c #B4B4AA",
/* pixels */
"rrrrrrrreeeteeeet",
"qqqqqqqqqqqqqqqqq",
"99999999999099999",
"77777777504997777",
"55555555555555545",
"3               <",
"<               <",
">               >",
":               :",
";      X<O      ;",
"%     Oqiq      =",
"$    Xqiii0     $",
"@   X9iiiii9X   $",
"X  X9iiiiiii8   X",
"   <iietiyeii<   ",
"   @uqXeie#ty#   ",
"    &oXqit o$    ",
"       tie       ",
"       eie       ",
"       6e6       ",
"                 ",
"                 ",
"                 ",
"                 ",
"                 ",
"                 ",
"                 ",
"                 ",
"....    X        ",
"eeeeeeeeeeeeetqte",
"qqqqqqqqqqqqqqqqq",
"99999999999999999",
"67775977777777775",
"65555555555555555",
"1 .             3",
"1               <",
",.              ,",
"-.              ,",
"-      OsO      -",
"%     OlMlO     -",
"+    XkMMMj     $",
"+   .hMMMMMhO   X",
"+. .gMMMMMMMf.  X",
" ..aMMxbMbvMMp   ",
"   =mxocMv+vn-   ",
"   .,=.vMv.-:.   ",
"       vMv       ",
"       xMv       ",
"       dzd       ",
"                 ",
"                 ",
"                 ",
"                 ",
"                 ",
"                 ",
"                 ",
"                 ",
"                 "
};
