/* XPM */
static char *rolldownA[] = {
/* columns rows colors chars-per-pixel */
"17 58 48 1 ",
"  c #3C3B37",
". c #3D3C38",
"X c #3E3D38",
"o c #3F3E39",
"O c #403F3B",
"+ c #41403B",
"@ c #42413D",
"# c #43423D",
"$ c #44433D",
"% c #47453F",
"& c #454440",
"* c #4A4841",
"= c #494843",
"- c #4C4A43",
"; c #4B4A45",
": c #4F4D45",
"> c #525048",
", c #54524A",
"< c #54534C",
"1 c #55544D",
"2 c #56554D",
"3 c #595750",
"4 c #585850",
"5 c #595851",
"6 c #5A5951",
"7 c #5B5A53",
"8 c #5B5B53",
"9 c #5E5C55",
"0 c #5F5F57",
"q c #605F58",
"w c #606058",
"e c #636359",
"r c #67675E",
"t c #696861",
"y c #6B6B61",
"u c #6A6A62",
"i c #6D6C64",
"p c #707067",
"a c #74746B",
"s c #78776F",
"d c #797971",
"f c #84847A",
"g c #87877C",
"h c #8B8B80",
"j c #8B8A81",
"k c #929287",
"l c #949489",
"z c #9C9C90",
/* pixels */
"qqqqqqqqqqqqqq9ww",
"99999999999999999",
"77777777777777777",
"33333333333472737",
"22222222222222222",
",               >",
">               >",
":               :",
"-               ;",
"*      sgd      *",
"%     ogzg      %",
"$      gzf      %",
"+   ;$ fzg $;   O",
"o  ;lj%fzg%kk*  o",
"   uzzfjzjgzzt   ",
"    pzzzzzzzio   ",
"     szzzzzso    ",
"     odzzza      ",
"      odzd       ",
"       oio       ",
"                 ",
"                 ",
"                 ",
"                 ",
"                 ",
"                 ",
"                 ",
"                 ",
"             o o ",
"qww99qqqw0qq900w9",
"99999999999999999",
"87788887888887777",
"73333333333333334",
"<<42222222222222<",
">               2",
">               >",
":               :",
"-               -",
";      3q7      *",
"%      qy9      &",
"$     owyw      $",
"o   $o wyw $#   o",
"O  $rq+wyw$er$  o",
"   1yuwwye9yu>   ",
"    2yyyyyuu1    ",
"     2yyyyu4     ",
"     o7yyy4      ",
"       8y7       ",
"       o<o       ",
"                 ",
"                 ",
"                 ",
"                 ",
"                 ",
"                 ",
"                 ",
"                 ",
"                 "
};
