/* XPM */
static char *rolldownI[] = {
/* columns rows colors chars-per-pixel */
"17 58 51 1 ",
"  c #3C3B37",
". c #3D3C38",
"X c #3F3E39",
"o c #403F3A",
"O c #41403B",
"+ c #43423E",
"@ c #44433D",
"# c #47453F",
"$ c #454440",
"% c #474642",
"& c #4A4841",
"* c #4C4A43",
"= c #4C4B47",
"- c #4F4D45",
"; c #4F4E49",
": c #525048",
"> c #52514B",
", c #54524A",
"< c #54534C",
"1 c #56554D",
"2 c #595750",
"3 c #585850",
"4 c #5B5A53",
"5 c #5B5B53",
"6 c #5E5C55",
"7 c #5F5F57",
"8 c #605F58",
"9 c #606058",
"0 c #636359",
"q c #63625A",
"w c #66665D",
"e c #67675E",
"r c #6B6B61",
"t c #75746D",
"y c #75756E",
"u c #797871",
"i c #7D7C74",
"p c #7D7D76",
"a c #82827A",
"s c #83837B",
"d c #85847D",
"f c #87867F",
"g c #898981",
"h c #8B8B84",
"j c #96968D",
"k c #999991",
"l c #9F9E96",
"z c #A3A399",
"x c #A8A89F",
"c c #AAAAA1",
"v c #B4B4AA",
/* pixels */
"88888888977888888",
"66666666666666666",
"44444444445455555",
"22222222233322222",
"11111111111111111",
",               >",
":               :",
"-               -",
"*               *",
"&      4q3      &",
"#      qr9      $",
"@      7r9      #",
"O   +o 7r9 O+   X",
"X  $eqXqr9O0e+  +",
"   :rr6qr09rr:.  ",
"    1rrrrrrr:..  ",
"     5rrrrr2     ",
"      5rrr5      ",
"       5r5       ",
"        :        ",
"        X        ",
"                 ",
"                 ",
"                 ",
"                 ",
"                 ",
"                 ",
"                 ",
"                 ",
"887676q7888888876",
"86666666666666666",
"56444445555555555",
"22222222222222222",
"<<11<<1111111111<",
":               <",
":               :",
"-               -",
"*               *",
"&      gkg      &",
"%      kvk      $",
"+      kvk      +",
"o   =% kvko%*   X",
"o  :cl%kvk%zx=  X",
"   yvvjlvlkvvy   ",
"    pvvvvvvvi    ",
"     dvvvvva     ",
"      gvvvd      ",
"       hvgo      ",
"       XuX       ",
"       X         ",
"                 ",
"                 ",
"                 ",
"                 ",
"                 ",
"                 ",
"                 ",
"                 "
};
