/* XPM */
static char *rollupA[] = {
/* columns rows colors chars-per-pixel */
"17 58 52 1 ",
"  c #3C3B37",
". c #3D3C38",
"X c #3F3E39",
"o c #403F3A",
"O c #403F3B",
"+ c #41403B",
"@ c #42413C",
"# c #44433D",
"$ c #47453F",
"% c #464540",
"& c #4A4841",
"* c #4C4A43",
"= c #4B4A45",
"- c #4F4D45",
"; c #525048",
": c #52524B",
"> c #54524A",
", c #56554D",
"< c #575650",
"1 c #595750",
"2 c #595951",
"3 c #5A5A52",
"4 c #5B5A53",
"5 c #5C5B53",
"6 c #5C5C54",
"7 c #5E5C55",
"8 c #5E5E55",
"9 c #5F5E56",
"0 c #5F5F57",
"q c #605F58",
"w c #606058",
"e c #616058",
"r c #636359",
"t c #64645A",
"y c #696861",
"u c #6B6B61",
"i c #6A6A62",
"p c #6D6C64",
"a c #73726A",
"s c #78786E",
"d c #79796F",
"f c #7D7C73",
"g c #7D7D74",
"h c #818177",
"j c #84847A",
"k c #85857B",
"l c #87877C",
"z c #88877E",
"x c #8B8B80",
"c c #8D8D82",
"v c #908F85",
"b c #9C9C90",
/* pixels */
"qqqqqqqq00qqqq7w0",
"77777777777777777",
"44444444444454447",
"1111111111115,4<<",
",,,,,,,,,,,,,,,,<",
">               ;",
";               ;",
"-               -",
"*      .        -",
"&      XpX      $",
"$     Xkbh..    $",
"#   ..hbbbg.    $",
"+    gbbbbbg..  +",
"X  Xdbbbbbbbd.  X",
"   ibbkxbxzbby   ",
"   %vkXkbk@zx$   ",
"    *+.lbl $&    ",
"    .  zbl       ",
"       kbl       ",
"       aka       ",
"                 ",
"                 ",
"                 ",
"                 ",
"                 ",
"                 ",
"                 ",
"                 ",
"     X  .        ",
"qqqq7w00ww00w0007",
"77777777777777777",
"44444444444446467",
"1111<<1<111111116",
",,,,,,<,,,,,,,,,,",
":               ;",
";               ;",
"-               -",
"*               &",
"&      X>       &",
"%      qu7O     $",
"#   ..7uuu7X    #",
"+    7uuuuu7    +",
"X.  4uuuuuuu4   .",
"  .;uuwwur0ui;   ",
"   .twOwu0+0tX   ",
"  ..#+ wu0 X$    ",
"      .wu0       ",
"       wuw       ",
"       272       ",
"                 ",
"                 ",
"                 ",
"                 ",
"                 ",
"                 ",
"                 ",
"                 ",
"                 "
};
