/* XPM */
static char *rolldownO[] = {
/* columns rows colors chars-per-pixel */
"17 58 47 1 ",
"  c #3C3B37",
". c #3D3C38",
"X c #3F3E39",
"o c #403F3A",
"O c #403F3B",
"+ c #41403B",
"@ c #43423D",
"# c #44433D",
"$ c #47453F",
"% c #454440",
"& c #4A4841",
"* c #4C4A43",
"= c #4C4B47",
"- c #4F4D45",
"; c #4F4E49",
": c #525048",
"> c #54524A",
", c #55544D",
"< c #56554D",
"1 c #55554E",
"2 c #595750",
"3 c #585850",
"4 c #5B5A53",
"5 c #5B5B53",
"6 c #5E5C55",
"7 c #605F58",
"8 c #606058",
"9 c #616058",
"0 c #64645B",
"q c #66665D",
"w c #67675E",
"e c #6B6B61",
"r c #75746D",
"t c #75756E",
"y c #797871",
"u c #7D7D76",
"i c #82827A",
"p c #87867F",
"a c #898981",
"s c #8B8B84",
"d c #96968D",
"f c #999991",
"g c #9F9E96",
"h c #A3A399",
"j c #A8A89F",
"k c #AAAAA1",
"l c #B4B4AA",
/* pixels */
"77777777699969698",
"66666666666666666",
"44444444444455545",
"2222222222225<422",
"<<<<<<<<<<<<<<<<<",
">               :",
":               :",
"-               ;",
"*               *",
"&      pfa      &",
"$      flf      %",
"#      flf      $",
"+   ;% flfX%;   o",
"X  ;kg$flf%hj=  X",
"   tlldglgfllt   ",
"    ulllllllu    ",
"     illllliX    ",
"     Xalllp      ",
"       sla       ",
"       XyX       ",
"                 ",
"                 ",
"                 ",
"                 ",
"                 ",
"                 ",
"                 ",
"                 ",
"             X   ",
"77787777888776999",
"66666666666666666",
"44455554454444444",
"22222222222222222",
"<,<,<,<<<<<<<<<<<",
":  X            >",
":               ;",
"-               ;",
"=               ;",
"&      575      %",
"#      7e7      %",
"#    X 8e7      %",
"X   #X 8e9 ##   X",
"X  #w7X9e9#9q#  X",
"   3ee77e97ee:   ",
"    ,eeeeeee,    ",
"     3eeeee3     ",
"      5eee3      ",
"       5e5       ",
"        1        ",
"                 ",
"                 ",
"                 ",
"                 ",
"                 ",
"                 ",
"                 ",
"                 ",
"                 "
};
